/* XPM */
static char *_2737_945cbc9939e56716dd52bf483dd68da25b32d77bd3fe08016a729c967d0f8a74[] = {
/* columns rows colors chars-per-pixel */
"128 128 9 1 ",
"  c #C7C19D",
". c #CEC8A3",
"X c #D4CCA6",
"o c #D7D1AA",
"O c #D9D3AB",
"+ c #DED8AD",
"@ c #E6DFB5",
"# c #EFE8BC",
"$ c #F9EEC1",
/* pixels */
"$$$$$$$$$$$$$$$$$$$$$$$$$$$$$$$$$$$$$$$$$$$$$$$$$$$$$$$$$$$$$$$$$$$$$$$$$$$$$$$$$$$$$$$$$$$$$$$$$$$$$$$$$$$$$$$$$$$$$$$$$$$$$$$$",
"$$$$#$$$#$##$#$$#$#############$$$$$#$$$#$##$#$$#$#############$$$$$#$$$#$##$#$$#$#############$$$$$#$$$#$##$#$$#$#############$",
"#O++++++++O+OOO+O++OOOOoOOOOO+OX#O++++++++O+OOO+O++OOOOoOOOOO+OX#O++++++++O+OOO+O++OOOOoOOOOO+OX#O++++++++O+OOO+O++OOOOoOOOOO+OX",
"#+++++OO++O+OOOO+O+OO+OXOOOOOXo.#+++++OO++O+OOOO+O+OO+OXOOOOOXo.#+++++OO++O+OOOO+O+OO+OXOOOOOXo.#+++++OO++O+OOOO+O+OO+OXOOOOOXo.",
"#O++OOO+O+OOO+O+O+OO+OXOOXoXOXOX#O++OOO+O+OOO+O+O+OO+OXOOXoXOXOX#O++OOO+O+OOO+O+O+OO+OXOOXoXOXOX#O++OOO+O+OOO+O+O+OO+OXOOXoXOXOX",
"#OOOOO++OOOOOOOOOOOOOOOOOOOOOOO.#OOOOO++OOOOOOOOOOOOOOOOOOOOOOO.#OOOOO++OOOOOOOOOOOOOOOOOOOOOOO.#OOOOO++OOOOOOOOOOOOOOOOOOOOOOO.",
"#OOOO++OOO+OOOOOOOOO+OOOOOOXOoX.#OOOO++OOO+OOOOOOOOO+OOOOOOXOoX.#OOOO++OOO+OOOOOOOOO+OOOOOOXOoX.#OOOO++OOO+OOOOOOOOO+OOOOOOXOoX.",
"#XOOOOO+O++OO+OO+OOOOOOOOOXOXOO #XOOOOO+O++OO+OO+OOOOOOOOOXOXOO #XOOOOO+O++OO+OO+OOOOOOOOOXOXOO #XOOOOO+O++OO+OO+OOOOOOOOOXOXOO ",
"#O++OOO+OOOOOOOOOOOO+OXOXXOOOOO.#O++OOO+OOOOOOOOOOOO+OXOXXOOOOO.#O++OOO+OOOOOOOOOOOO+OXOXXOOOOO.#O++OOO+OOOOOOOOOOOO+OXOXXOOOOO.",
"#OO+++OO+OO+OOOOOOOOOOooooOXOOX.#OO+++OO+OO+OOOOOOOOOOooooOXOOX.#OO+++OO+OO+OOOOOOOOOOooooOXOOX.#OO+++OO+OO+OOOOOOOOOOooooOXOOX.",
"@OOOOOOOOOOOOOOOOOOOOOooooOOXoo.@OOOOOOOOOOOOOOOOOOOOOooooOOXoo.@OOOOOOOOOOOOOOOOOOOOOooooOOXoo.@OOOOOOOOOOOOOOOOOOOOOooooOOXoo.",
"#OO+OOOOO+OOOOOOoooOOXOooOOOOOX.#OO+OOOOO+OOOOOOoooOOXOooOOOOOX.#OO+OOOOO+OOOOOOoooOOXOooOOOOOX.#OO+OOOOO+OOOOOOoooOOXOooOOOOOX.",
"#XOOOOOO+OOOOOOOOOOOOOoOOooooOO #XOOOOOO+OOOOOOOOOOOOOoOOooooOO #XOOOOOO+OOOOOOOOOOOOOoOOooooOO #XOOOOOO+OOOOOOOOOOOOOoOOooooOO ",
"#O+OOOOOOOoOOoOooooOOOXoOXOooXO.#O+OOOOOOOoOOoOooooOOOXoOXOooXO.#O+OOOOOOOoOOoOooooOOOXoOXOooXO.#O+OOOOOOOoOOoOooooOOOXoOXOooXO.",
"@X.X.X..Xo..XoXooX.....o .......@X.X.X..Xo..XoXooX.....o .......@X.X.X..Xo..XoXooX.....o .......@X.X.X..Xo..XoXooX.....o .......",
"$+XO.XXX.XX..X....XXX..X...X...O$+XO.XXX.XX..X....XXX..X...X...O$+XO.XXX.XX..X....XXX..X...X...O$+XO.XXX.XX..X....XXX..X...X...O",
"$$$$$$$$$$$$$$$$$$$$$$$$$$$$$$$$$$$$$$$$$$$$$$$$$$$$$$$$$$$$$$$$$$$$$$$$$$$$$$$$$$$$$$$$$$$$$$$$$$$$$$$$$$$$$$$$$$$$$$$$$$$$$$$$",
"$##############$$$$$#$#$$#$#$#$#$##############$$$$$#$#$$#$#$#$#$##############$$$$$#$#$$#$#$#$#$##############$$$$$#$#$$#$#$#$#",
"++OOOoOOOOOO+O+X#O+++++++++OOO+O++OOOoOOOOOO+O+X#O+++++++++OOO+O++OOOoOOOOOO+O+X#O+++++++++OOO+O++OOOoOOOOOO+O+X#O+++++++++OOO+O",
"O+OO+XOOOOO+XoX.#++++++OO++OOOO+O+OO+XOOOOO+XoX.#++++++OO++OOOO+O+OO+XOOOOO+XoX.#++++++OO++OOOO+O+OO+XOOOOO+XoX.#++++++OO++OOOO+",
"+OO+OOOXoXOOXOXX#O++OOOO+O+OO++O+OO+OOOXoXOOXOXX#O++OOOO+O+OO++O+OO+OOOXoXOOXOXX#O++OOOO+O+OO++O+OO+OOOXoXOOXOXX#O++OOOO+O+OO++O",
"OOOOOOOOOOOOOOO.#OOOOOO++OOOOOOOOOOOOOOOOOOOOOO.#OOOOOO++OOOOOOOOOOOOOOOOOOOOOO.#OOOOOO++OOOOOOOOOOOOOOOOOOOOOO.#OOOOOO++OOOOOOO",
"OOO+OOOOOXOOoXo.#OOOO+O+OOO+OOOOOOO+OOOOOXOOoXo.#OOOO+O+OOO+OOOOOOO+OOOOOXOOoXo.#OOOO+O+OOO+OOOOOOO+OOOOOXOOoXo.#OOOO+O+OOO+OOOO",
"OOOOOOOOXOXOOOO #XOOOOOO+O++O+O+OOOOOOOOXOXOOOO #XOOOOOO+O++O+O+OOOOOOOOXOXOOOO #XOOOOOO+O++O+O+OOOOOOOOXOXOOOO #XOOOOOO+O++O+O+",
"OOO+OOXXOOOOOOO.#O++OOOO+OOOOOOOOOO+OOXXOOOOOOO.#O++OOOO+OOOOOOOOOO+OOXXOOOOOOO.#O++OOOO+OOOOOOOOOO+OOXXOOOOOOO.#O++OOOO+OOOOOOO",
"OOOOOoooOXOOOXO.#OO++++OO+OOOOOOOOOOOoooOXOOOXO.#OO++++OO+OOOOOOOOOOOoooOXOOOXO.#OO++++OO+OOOOOOOOOOOoooOXOOOXO.#OO++++OO+OOOOOO",
"OOOOOoooOOXOooo.@OOOOOOOOOOOOOOOOOOOOoooOOXOooo.@OOOOOOOOOOOOOOOOOOOOoooOOXOooo.@OOOOOOOOOOOOOOOOOOOOoooOOXOooo.@OOOOOOOOOOOOOOO",
"ooOOXooOOOOXOXO.#OO+OOOOOO+OOOOoooOOXooOOOOXOXO.#OO+OOOOOO+OOOOoooOOXooOOOOXOXO.#OO+OOOOOO+OOOOoooOOXooOOOOXOXO.#OO+OOOOOO+OOOOo",
"OOOOOOOooooOOOO #XOOOO+OO+OOOOOOOOOOOOOooooOOOO #XOOOO+OO+OOOOOOOOOOOOOooooOOOO #XOOOO+OO+OOOOOOOOOOOOOooooOOOO #XOOOO+OO+OOOOOO",
"ooOOOoOXOooOXOX.#O+OOOOOOOOoOoooooOOOoOXOooOXOX.#O+OOOOOOOOoOoooooOOOoOXOooOXOX.#O+OOOOOOOOoOoooooOOOoOXOooOXOX.#O+OOOOOOOOoOooo",
"X....o .........@X.X.XX..Xo.XoooX....o .........@X.X.XX..Xo.XoooX....o .........@X.X.XX..Xo.XoooX....o .........@X.X.XX..Xo.Xooo",
"X.XXX.X...XX...O$+XO.X.XX.XX.X..X.XXX.X...XX...O$+XO.X.XX.XX.X..X.XXX.X...XX...O$+XO.X.XX.XX.X..X.XXX.X...XX...O$+XO.X.XX.XX.X..",
"$$$$$$$$$$$$$$$$$$$$$$$$$$$$$$$$$$$$$$$$$$$$$$$$$$$$$$$$$$$$$$$$$$$$$$$$$$$$$$$$$$$$$$$$$$$$$$$$$$$$$$$$$$$$$$$$$$$$$$$$$$$$$$$$",
"$$$$#$$$#$##$#$$#$#############$$$$$#$$$#$##$#$$#$#############$$$$$#$$$#$##$#$$#$#############$$$$$#$$$#$##$#$$#$#############$",
"#O++++++++O+OOO+O++OOOOoOOOOO+OX#O++++++++O+OOO+O++OOOOoOOOOO+OX#O++++++++O+OOO+O++OOOOoOOOOO+OX#O++++++++O+OOO+O++OOOOoOOOOO+OX",
"#+++++OO++O+OOOO+O+OO+OXOOOOOXo.#+++++OO++O+OOOO+O+OO+OXOOOOOXo.#+++++OO++O+OOOO+O+OO+OXOOOOOXo.#+++++OO++O+OOOO+O+OO+OXOOOOOXo.",
"#O++OOO+O+OOO+O+O+OO+OXOOXoXOXOX#O++OOO+O+OOO+O+O+OO+OXOOXoXOXOX#O++OOO+O+OOO+O+O+OO+OXOOXoXOXOX#O++OOO+O+OOO+O+O+OO+OXOOXoXOXOX",
"#OOOOO++OOOOOOOOOOOOOOOOOOOOOOO.#OOOOO++OOOOOOOOOOOOOOOOOOOOOOO.#OOOOO++OOOOOOOOOOOOOOOOOOOOOOO.#OOOOO++OOOOOOOOOOOOOOOOOOOOOOO.",
"#OOOO++OOO+OOOOOOOOO+OOOOOOXOoX.#OOOO++OOO+OOOOOOOOO+OOOOOOXOoX.#OOOO++OOO+OOOOOOOOO+OOOOOOXOoX.#OOOO++OOO+OOOOOOOOO+OOOOOOXOoX.",
"#XOOOOO+O++OO+OO+OOOOOOOOOXOXOO #XOOOOO+O++OO+OO+OOOOOOOOOXOXOO #XOOOOO+O++OO+OO+OOOOOOOOOXOXOO #XOOOOO+O++OO+OO+OOOOOOOOOXOXOO ",
"#O++OOO+OOOOOOOOOOOO+OXOXXOOOOO.#O++OOO+OOOOOOOOOOOO+OXOXXOOOOO.#O++OOO+OOOOOOOOOOOO+OXOXXOOOOO.#O++OOO+OOOOOOOOOOOO+OXOXXOOOOO.",
"#OO+++OO+OO+OOOOOOOOOOooooOXOOX.#OO+++OO+OO+OOOOOOOOOOooooOXOOX.#OO+++OO+OO+OOOOOOOOOOooooOXOOX.#OO+++OO+OO+OOOOOOOOOOooooOXOOX.",
"@OOOOOOOOOOOOOOOOOOOOOooooOOXoo.@OOOOOOOOOOOOOOOOOOOOOooooOOXoo.@OOOOOOOOOOOOOOOOOOOOOooooOOXoo.@OOOOOOOOOOOOOOOOOOOOOooooOOXoo.",
"#OO+OOOOO+OOOOOOoooOOXOooOOOOOX.#OO+OOOOO+OOOOOOoooOOXOooOOOOOX.#OO+OOOOO+OOOOOOoooOOXOooOOOOOX.#OO+OOOOO+OOOOOOoooOOXOooOOOOOX.",
"#XOOOOOO+OOOOOOOOOOOOOoOOooooOO #XOOOOOO+OOOOOOOOOOOOOoOOooooOO #XOOOOOO+OOOOOOOOOOOOOoOOooooOO #XOOOOOO+OOOOOOOOOOOOOoOOooooOO ",
"#O+OOOOOOOoOOoOooooOOOXoOXOooXO.#O+OOOOOOOoOOoOooooOOOXoOXOooXO.#O+OOOOOOOoOOoOooooOOOXoOXOooXO.#O+OOOOOOOoOOoOooooOOOXoOXOooXO.",
"@X.X.X..Xo..XoXooX.....o .......@X.X.X..Xo..XoXooX.....o .......@X.X.X..Xo..XoXooX.....o .......@X.X.X..Xo..XoXooX.....o .......",
"$+XO.XXX.XX..X....XXX..X...X...O$+XO.XXX.XX..X....XXX..X...X...O$+XO.XXX.XX..X....XXX..X...X...O$+XO.XXX.XX..X....XXX..X...X...O",
"$$$$$$$$$$$$$$$$$$$$$$$$$$$$$$$$$$$$$$$$$$$$$$$$$$$$$$$$$$$$$$$$$$$$$$$$$$$$$$$$$$$$$$$$$$$$$$$$$$$$$$$$$$$$$$$$$$$$$$$$$$$$$$$$",
"$##############$$$$$#$#$$#$#$#$#$##############$$$$$#$#$$#$#$#$#$##############$$$$$#$#$$#$#$#$#$##############$$$$$#$#$$#$#$#$#",
"++OOOoOOOOOO+O+X#O+++++++++OOO+O++OOOoOOOOOO+O+X#O+++++++++OOO+O++OOOoOOOOOO+O+X#O+++++++++OOO+O++OOOoOOOOOO+O+X#O+++++++++OOO+O",
"O+OO+XOOOOO+XoX.#++++++OO++OOOO+O+OO+XOOOOO+XoX.#++++++OO++OOOO+O+OO+XOOOOO+XoX.#++++++OO++OOOO+O+OO+XOOOOO+XoX.#++++++OO++OOOO+",
"+OO+OOOXoXOOXOXX#O++OOOO+O+OO++O+OO+OOOXoXOOXOXX#O++OOOO+O+OO++O+OO+OOOXoXOOXOXX#O++OOOO+O+OO++O+OO+OOOXoXOOXOXX#O++OOOO+O+OO++O",
"OOOOOOOOOOOOOOO.#OOOOOO++OOOOOOOOOOOOOOOOOOOOOO.#OOOOOO++OOOOOOOOOOOOOOOOOOOOOO.#OOOOOO++OOOOOOOOOOOOOOOOOOOOOO.#OOOOOO++OOOOOOO",
"OOO+OOOOOXOOoXo.#OOOO+O+OOO+OOOOOOO+OOOOOXOOoXo.#OOOO+O+OOO+OOOOOOO+OOOOOXOOoXo.#OOOO+O+OOO+OOOOOOO+OOOOOXOOoXo.#OOOO+O+OOO+OOOO",
"OOOOOOOOXOXOOOO #XOOOOOO+O++O+O+OOOOOOOOXOXOOOO #XOOOOOO+O++O+O+OOOOOOOOXOXOOOO #XOOOOOO+O++O+O+OOOOOOOOXOXOOOO #XOOOOOO+O++O+O+",
"OOO+OOXXOOOOOOO.#O++OOOO+OOOOOOOOOO+OOXXOOOOOOO.#O++OOOO+OOOOOOOOOO+OOXXOOOOOOO.#O++OOOO+OOOOOOOOOO+OOXXOOOOOOO.#O++OOOO+OOOOOOO",
"OOOOOoooOXOOOXO.#OO++++OO+OOOOOOOOOOOoooOXOOOXO.#OO++++OO+OOOOOOOOOOOoooOXOOOXO.#OO++++OO+OOOOOOOOOOOoooOXOOOXO.#OO++++OO+OOOOOO",
"OOOOOoooOOXOooo.@OOOOOOOOOOOOOOOOOOOOoooOOXOooo.@OOOOOOOOOOOOOOOOOOOOoooOOXOooo.@OOOOOOOOOOOOOOOOOOOOoooOOXOooo.@OOOOOOOOOOOOOOO",
"ooOOXooOOOOXOXO.#OO+OOOOOO+OOOOoooOOXooOOOOXOXO.#OO+OOOOOO+OOOOoooOOXooOOOOXOXO.#OO+OOOOOO+OOOOoooOOXooOOOOXOXO.#OO+OOOOOO+OOOOo",
"OOOOOOOooooOOOO #XOOOO+OO+OOOOOOOOOOOOOooooOOOO #XOOOO+OO+OOOOOOOOOOOOOooooOOOO #XOOOO+OO+OOOOOOOOOOOOOooooOOOO #XOOOO+OO+OOOOOO",
"ooOOOoOXOooOXOX.#O+OOOOOOOOoOoooooOOOoOXOooOXOX.#O+OOOOOOOOoOoooooOOOoOXOooOXOX.#O+OOOOOOOOoOoooooOOOoOXOooOXOX.#O+OOOOOOOOoOooo",
"X....o .........@X.X.XX..Xo.XoooX....o .........@X.X.XX..Xo.XoooX....o .........@X.X.XX..Xo.XoooX....o .........@X.X.XX..Xo.Xooo",
"X.XXX.X...XX...O$+XO.X.XX.XX.X..X.XXX.X...XX...O$+XO.X.XX.XX.X..X.XXX.X...XX...O$+XO.X.XX.XX.X..X.XXX.X...XX...O$+XO.X.XX.XX.X..",
"$$$$$$$$$$$$$$$$$$$$$$$$$$$$$$$$$$$$$$$$$$$$$$$$$$$$$$$$$$$$$$$$$$$$$$$$$$$$$$$$$$$$$$$$$$$$$$$$$$$$$$$$$$$$$$$$$$$$$$$$$$$$$$$$",
"$$$$#$$$#$##$#$$#$#############$$$$$#$$$#$##$#$$#$#############$$$$$#$$$#$##$#$$#$#############$$$$$#$$$#$##$#$$#$#############$",
"#O++++++++O+OOO+O++OOOOoOOOOO+OX#O++++++++O+OOO+O++OOOOoOOOOO+OX#O++++++++O+OOO+O++OOOOoOOOOO+OX#O++++++++O+OOO+O++OOOOoOOOOO+OX",
"#+++++OO++O+OOOO+O+OO+OXOOOOOXo.#+++++OO++O+OOOO+O+OO+OXOOOOOXo.#+++++OO++O+OOOO+O+OO+OXOOOOOXo.#+++++OO++O+OOOO+O+OO+OXOOOOOXo.",
"#O++OOO+O+OOO+O+O+OO+OXOOXoXOXOX#O++OOO+O+OOO+O+O+OO+OXOOXoXOXOX#O++OOO+O+OOO+O+O+OO+OXOOXoXOXOX#O++OOO+O+OOO+O+O+OO+OXOOXoXOXOX",
"#OOOOO++OOOOOOOOOOOOOOOOOOOOOOO.#OOOOO++OOOOOOOOOOOOOOOOOOOOOOO.#OOOOO++OOOOOOOOOOOOOOOOOOOOOOO.#OOOOO++OOOOOOOOOOOOOOOOOOOOOOO.",
"#OOOO++OOO+OOOOOOOOO+OOOOOOXOoX.#OOOO++OOO+OOOOOOOOO+OOOOOOXOoX.#OOOO++OOO+OOOOOOOOO+OOOOOOXOoX.#OOOO++OOO+OOOOOOOOO+OOOOOOXOoX.",
"#XOOOOO+O++OO+OO+OOOOOOOOOXOXOO #XOOOOO+O++OO+OO+OOOOOOOOOXOXOO #XOOOOO+O++OO+OO+OOOOOOOOOXOXOO #XOOOOO+O++OO+OO+OOOOOOOOOXOXOO ",
"#O++OOO+OOOOOOOOOOOO+OXOXXOOOOO.#O++OOO+OOOOOOOOOOOO+OXOXXOOOOO.#O++OOO+OOOOOOOOOOOO+OXOXXOOOOO.#O++OOO+OOOOOOOOOOOO+OXOXXOOOOO.",
"#OO+++OO+OO+OOOOOOOOOOooooOXOOX.#OO+++OO+OO+OOOOOOOOOOooooOXOOX.#OO+++OO+OO+OOOOOOOOOOooooOXOOX.#OO+++OO+OO+OOOOOOOOOOooooOXOOX.",
"@OOOOOOOOOOOOOOOOOOOOOooooOOXoo.@OOOOOOOOOOOOOOOOOOOOOooooOOXoo.@OOOOOOOOOOOOOOOOOOOOOooooOOXoo.@OOOOOOOOOOOOOOOOOOOOOooooOOXoo.",
"#OO+OOOOO+OOOOOOoooOOXOooOOOOOX.#OO+OOOOO+OOOOOOoooOOXOooOOOOOX.#OO+OOOOO+OOOOOOoooOOXOooOOOOOX.#OO+OOOOO+OOOOOOoooOOXOooOOOOOX.",
"#XOOOOOO+OOOOOOOOOOOOOoOOooooOO #XOOOOOO+OOOOOOOOOOOOOoOOooooOO #XOOOOOO+OOOOOOOOOOOOOoOOooooOO #XOOOOOO+OOOOOOOOOOOOOoOOooooOO ",
"#O+OOOOOOOoOOoOooooOOOXoOXOooXO.#O+OOOOOOOoOOoOooooOOOXoOXOooXO.#O+OOOOOOOoOOoOooooOOOXoOXOooXO.#O+OOOOOOOoOOoOooooOOOXoOXOooXO.",
"@X.X.X..Xo..XoXooX.....o .......@X.X.X..Xo..XoXooX.....o .......@X.X.X..Xo..XoXooX.....o .......@X.X.X..Xo..XoXooX.....o .......",
"$+XO.XXX.XX..X....XXX..X...X...O$+XO.XXX.XX..X....XXX..X...X...O$+XO.XXX.XX..X....XXX..X...X...O$+XO.XXX.XX..X....XXX..X...X...O",
"$$$$$$$$$$$$$$$$$$$$$$$$$$$$$$$$$$$$$$$$$$$$$$$$$$$$$$$$$$$$$$$$$$$$$$$$$$$$$$$$$$$$$$$$$$$$$$$$$$$$$$$$$$$$$$$$$$$$$$$$$$$$$$$$",
"$##############$$$$$#$#$$#$#$#$#$##############$$$$$#$#$$#$#$#$#$##############$$$$$#$#$$#$#$#$#$##############$$$$$#$#$$#$#$#$#",
"++OOOoOOOOOO+O+X#O+++++++++OOO+O++OOOoOOOOOO+O+X#O+++++++++OOO+O++OOOoOOOOOO+O+X#O+++++++++OOO+O++OOOoOOOOOO+O+X#O+++++++++OOO+O",
"O+OO+XOOOOO+XoX.#++++++OO++OOOO+O+OO+XOOOOO+XoX.#++++++OO++OOOO+O+OO+XOOOOO+XoX.#++++++OO++OOOO+O+OO+XOOOOO+XoX.#++++++OO++OOOO+",
"+OO+OOOXoXOOXOXX#O++OOOO+O+OO++O+OO+OOOXoXOOXOXX#O++OOOO+O+OO++O+OO+OOOXoXOOXOXX#O++OOOO+O+OO++O+OO+OOOXoXOOXOXX#O++OOOO+O+OO++O",
"OOOOOOOOOOOOOOO.#OOOOOO++OOOOOOOOOOOOOOOOOOOOOO.#OOOOOO++OOOOOOOOOOOOOOOOOOOOOO.#OOOOOO++OOOOOOOOOOOOOOOOOOOOOO.#OOOOOO++OOOOOOO",
"OOO+OOOOOXOOoXo.#OOOO+O+OOO+OOOOOOO+OOOOOXOOoXo.#OOOO+O+OOO+OOOOOOO+OOOOOXOOoXo.#OOOO+O+OOO+OOOOOOO+OOOOOXOOoXo.#OOOO+O+OOO+OOOO",
"OOOOOOOOXOXOOOO #XOOOOOO+O++O+O+OOOOOOOOXOXOOOO #XOOOOOO+O++O+O+OOOOOOOOXOXOOOO #XOOOOOO+O++O+O+OOOOOOOOXOXOOOO #XOOOOOO+O++O+O+",
"OOO+OOXXOOOOOOO.#O++OOOO+OOOOOOOOOO+OOXXOOOOOOO.#O++OOOO+OOOOOOOOOO+OOXXOOOOOOO.#O++OOOO+OOOOOOOOOO+OOXXOOOOOOO.#O++OOOO+OOOOOOO",
"OOOOOoooOXOOOXO.#OO++++OO+OOOOOOOOOOOoooOXOOOXO.#OO++++OO+OOOOOOOOOOOoooOXOOOXO.#OO++++OO+OOOOOOOOOOOoooOXOOOXO.#OO++++OO+OOOOOO",
"OOOOOoooOOXOooo.@OOOOOOOOOOOOOOOOOOOOoooOOXOooo.@OOOOOOOOOOOOOOOOOOOOoooOOXOooo.@OOOOOOOOOOOOOOOOOOOOoooOOXOooo.@OOOOOOOOOOOOOOO",
"ooOOXooOOOOXOXO.#OO+OOOOOO+OOOOoooOOXooOOOOXOXO.#OO+OOOOOO+OOOOoooOOXooOOOOXOXO.#OO+OOOOOO+OOOOoooOOXooOOOOXOXO.#OO+OOOOOO+OOOOo",
"OOOOOOOooooOOOO #XOOOO+OO+OOOOOOOOOOOOOooooOOOO #XOOOO+OO+OOOOOOOOOOOOOooooOOOO #XOOOO+OO+OOOOOOOOOOOOOooooOOOO #XOOOO+OO+OOOOOO",
"ooOOOoOXOooOXOX.#O+OOOOOOOOoOoooooOOOoOXOooOXOX.#O+OOOOOOOOoOoooooOOOoOXOooOXOX.#O+OOOOOOOOoOoooooOOOoOXOooOXOX.#O+OOOOOOOOoOooo",
"X....o .........@X.X.XX..Xo.XoooX....o .........@X.X.XX..Xo.XoooX....o .........@X.X.XX..Xo.XoooX....o .........@X.X.XX..Xo.Xooo",
"X.XXX.X...XX...O$+XO.X.XX.XX.X..X.XXX.X...XX...O$+XO.X.XX.XX.X..X.XXX.X...XX...O$+XO.X.XX.XX.X..X.XXX.X...XX...O$+XO.X.XX.XX.X..",
"$$$$$$$$$$$$$$$$$$$$$$$$$$$$$$$$$$$$$$$$$$$$$$$$$$$$$$$$$$$$$$$$$$$$$$$$$$$$$$$$$$$$$$$$$$$$$$$$$$$$$$$$$$$$$$$$$$$$$$$$$$$$$$$$",
"$$$$#$$$#$##$#$$#$#############$$$$$#$$$#$##$#$$#$#############$$$$$#$$$#$##$#$$#$#############$$$$$#$$$#$##$#$$#$#############$",
"#O++++++++O+OOO+O++OOOOoOOOOO+OX#O++++++++O+OOO+O++OOOOoOOOOO+OX#O++++++++O+OOO+O++OOOOoOOOOO+OX#O++++++++O+OOO+O++OOOOoOOOOO+OX",
"#+++++OO++O+OOOO+O+OO+OXOOOOOXo.#+++++OO++O+OOOO+O+OO+OXOOOOOXo.#+++++OO++O+OOOO+O+OO+OXOOOOOXo.#+++++OO++O+OOOO+O+OO+OXOOOOOXo.",
"#O++OOO+O+OOO+O+O+OO+OXOOXoXOXOX#O++OOO+O+OOO+O+O+OO+OXOOXoXOXOX#O++OOO+O+OOO+O+O+OO+OXOOXoXOXOX#O++OOO+O+OOO+O+O+OO+OXOOXoXOXOX",
"#OOOOO++OOOOOOOOOOOOOOOOOOOOOOO.#OOOOO++OOOOOOOOOOOOOOOOOOOOOOO.#OOOOO++OOOOOOOOOOOOOOOOOOOOOOO.#OOOOO++OOOOOOOOOOOOOOOOOOOOOOO.",
"#OOOO++OOO+OOOOOOOOO+OOOOOOXOoX.#OOOO++OOO+OOOOOOOOO+OOOOOOXOoX.#OOOO++OOO+OOOOOOOOO+OOOOOOXOoX.#OOOO++OOO+OOOOOOOOO+OOOOOOXOoX.",
"#XOOOOO+O++OO+OO+OOOOOOOOOXOXOO #XOOOOO+O++OO+OO+OOOOOOOOOXOXOO #XOOOOO+O++OO+OO+OOOOOOOOOXOXOO #XOOOOO+O++OO+OO+OOOOOOOOOXOXOO ",
"#O++OOO+OOOOOOOOOOOO+OXOXXOOOOO.#O++OOO+OOOOOOOOOOOO+OXOXXOOOOO.#O++OOO+OOOOOOOOOOOO+OXOXXOOOOO.#O++OOO+OOOOOOOOOOOO+OXOXXOOOOO.",
"#OO+++OO+OO+OOOOOOOOOOooooOXOOX.#OO+++OO+OO+OOOOOOOOOOooooOXOOX.#OO+++OO+OO+OOOOOOOOOOooooOXOOX.#OO+++OO+OO+OOOOOOOOOOooooOXOOX.",
"@OOOOOOOOOOOOOOOOOOOOOooooOOXoo.@OOOOOOOOOOOOOOOOOOOOOooooOOXoo.@OOOOOOOOOOOOOOOOOOOOOooooOOXoo.@OOOOOOOOOOOOOOOOOOOOOooooOOXoo.",
"#OO+OOOOO+OOOOOOoooOOXOooOOOOOX.#OO+OOOOO+OOOOOOoooOOXOooOOOOOX.#OO+OOOOO+OOOOOOoooOOXOooOOOOOX.#OO+OOOOO+OOOOOOoooOOXOooOOOOOX.",
"#XOOOOOO+OOOOOOOOOOOOOoOOooooOO #XOOOOOO+OOOOOOOOOOOOOoOOooooOO #XOOOOOO+OOOOOOOOOOOOOoOOooooOO #XOOOOOO+OOOOOOOOOOOOOoOOooooOO ",
"#O+OOOOOOOoOOoOooooOOOXoOXOooXO.#O+OOOOOOOoOOoOooooOOOXoOXOooXO.#O+OOOOOOOoOOoOooooOOOXoOXOooXO.#O+OOOOOOOoOOoOooooOOOXoOXOooXO.",
"@X.X.X..Xo..XoXooX.....o .......@X.X.X..Xo..XoXooX.....o .......@X.X.X..Xo..XoXooX.....o .......@X.X.X..Xo..XoXooX.....o .......",
"$+XO.XXX.XX..X....XXX..X...X...O$+XO.XXX.XX..X....XXX..X...X...O$+XO.XXX.XX..X....XXX..X...X...O$+XO.XXX.XX..X....XXX..X...X...O",
"$$$$$$$$$$$$$$$$$$$$$$$$$$$$$$$$$$$$$$$$$$$$$$$$$$$$$$$$$$$$$$$$$$$$$$$$$$$$$$$$$$$$$$$$$$$$$$$$$$$$$$$$$$$$$$$$$$$$$$$$$$$$$$$$",
"$##############$$$$$#$#$$#$#$#$#$##############$$$$$#$#$$#$#$#$#$##############$$$$$#$#$$#$#$#$#$##############$$$$$#$#$$#$#$#$#",
"++OOOoOOOOOO+O+X#O+++++++++OOO+O++OOOoOOOOOO+O+X#O+++++++++OOO+O++OOOoOOOOOO+O+X#O+++++++++OOO+O++OOOoOOOOOO+O+X#O+++++++++OOO+O",
"O+OO+XOOOOO+XoX.#++++++OO++OOOO+O+OO+XOOOOO+XoX.#++++++OO++OOOO+O+OO+XOOOOO+XoX.#++++++OO++OOOO+O+OO+XOOOOO+XoX.#++++++OO++OOOO+",
"+OO+OOOXoXOOXOXX#O++OOOO+O+OO++O+OO+OOOXoXOOXOXX#O++OOOO+O+OO++O+OO+OOOXoXOOXOXX#O++OOOO+O+OO++O+OO+OOOXoXOOXOXX#O++OOOO+O+OO++O",
"OOOOOOOOOOOOOOO.#OOOOOO++OOOOOOOOOOOOOOOOOOOOOO.#OOOOOO++OOOOOOOOOOOOOOOOOOOOOO.#OOOOOO++OOOOOOOOOOOOOOOOOOOOOO.#OOOOOO++OOOOOOO",
"OOO+OOOOOXOOoXo.#OOOO+O+OOO+OOOOOOO+OOOOOXOOoXo.#OOOO+O+OOO+OOOOOOO+OOOOOXOOoXo.#OOOO+O+OOO+OOOOOOO+OOOOOXOOoXo.#OOOO+O+OOO+OOOO",
"OOOOOOOOXOXOOOO #XOOOOOO+O++O+O+OOOOOOOOXOXOOOO #XOOOOOO+O++O+O+OOOOOOOOXOXOOOO #XOOOOOO+O++O+O+OOOOOOOOXOXOOOO #XOOOOOO+O++O+O+",
"OOO+OOXXOOOOOOO.#O++OOOO+OOOOOOOOOO+OOXXOOOOOOO.#O++OOOO+OOOOOOOOOO+OOXXOOOOOOO.#O++OOOO+OOOOOOOOOO+OOXXOOOOOOO.#O++OOOO+OOOOOOO",
"OOOOOoooOXOOOXO.#OO++++OO+OOOOOOOOOOOoooOXOOOXO.#OO++++OO+OOOOOOOOOOOoooOXOOOXO.#OO++++OO+OOOOOOOOOOOoooOXOOOXO.#OO++++OO+OOOOOO",
"OOOOOoooOOXOooo.@OOOOOOOOOOOOOOOOOOOOoooOOXOooo.@OOOOOOOOOOOOOOOOOOOOoooOOXOooo.@OOOOOOOOOOOOOOOOOOOOoooOOXOooo.@OOOOOOOOOOOOOOO",
"ooOOXooOOOOXOXO.#OO+OOOOOO+OOOOoooOOXooOOOOXOXO.#OO+OOOOOO+OOOOoooOOXooOOOOXOXO.#OO+OOOOOO+OOOOoooOOXooOOOOXOXO.#OO+OOOOOO+OOOOo",
"OOOOOOOooooOOOO #XOOOO+OO+OOOOOOOOOOOOOooooOOOO #XOOOO+OO+OOOOOOOOOOOOOooooOOOO #XOOOO+OO+OOOOOOOOOOOOOooooOOOO #XOOOO+OO+OOOOOO",
"ooOOOoOXOooOXOX.#O+OOOOOOOOoOoooooOOOoOXOooOXOX.#O+OOOOOOOOoOoooooOOOoOXOooOXOX.#O+OOOOOOOOoOoooooOOOoOXOooOXOX.#O+OOOOOOOOoOooo",
"X....o .........@X.X.XX..Xo.XoooX....o .........@X.X.XX..Xo.XoooX....o .........@X.X.XX..Xo.XoooX....o .........@X.X.XX..Xo.Xooo",
"X.XXX.X...XX...O$+XO.X.XX.XX.X..X.XXX.X...XX...O$+XO.X.XX.XX.X..X.XXX.X...XX...O$+XO.X.XX.XX.X..X.XXX.X...XX...O$+XO.X.XX.XX.X.."
};
