/* XPM */
static char *_1990_c01afa6e2e653456bb0b93aaa0cb90167bab94dc604f45c48092fec6a97fe659[] = {
/* columns rows colors chars-per-pixel */
"32 32 203 2 ",
"   c black",
".  c #080000",
"X  c gray3",
"o  c #100000",
"O  c #100800",
"+  c #180800",
"@  c #181008",
"#  c #101010",
"$  c #181010",
"%  c #101018",
"&  c #181018",
"*  c #101818",
"=  c #181818",
"-  c #210800",
";  c #211000",
":  c #291000",
">  c #211008",
",  c #291808",
"<  c #311000",
"1  c #391800",
"2  c #311808",
"3  c #391808",
"4  c #292118",
"5  c #181821",
"6  c #211829",
"7  c #182121",
"8  c #182129",
"9  c #182139",
"0  c #212129",
"q  c #312921",
"w  c #212931",
"e  c #212139",
"r  c #212939",
"t  c #292939",
"y  c #393939",
"u  c #421800",
"i  c #4A1800",
"p  c #422100",
"a  c #4A2100",
"s  c #422108",
"d  c #4A2108",
"f  c #522100",
"g  c #5A2100",
"h  c #5A2900",
"j  c #522908",
"k  c #5A2908",
"l  c #4A2918",
"z  c #522918",
"x  c #632900",
"c  c #6B2900",
"v  c #6B3100",
"b  c #6B3108",
"n  c #733100",
"m  c #7B3100",
"M  c #7B3900",
"N  c #733108",
"B  c #7B3910",
"V  c #423121",
"C  c #5A3129",
"Z  c #523139",
"A  c #182152",
"S  c #212142",
"D  c #212942",
"F  c #21214A",
"G  c #213142",
"H  c #293142",
"J  c #21314A",
"K  c #29314A",
"L  c #212152",
"P  c #293152",
"I  c #29425A",
"U  c #314263",
"Y  c #31427B",
"T  c #395273",
"R  c gray29",
"E  c #5A5A5A",
"W  c #63425A",
"Q  c #7B4A5A",
"!  c #5A5A6B",
"~  c #424A73",
"^  c #5A4A7B",
"/  c #73527B",
"(  c gray42",
")  c #7B737B",
"_  c #7B7B7B",
"`  c #843900",
"'  c #8C3900",
"]  c #943900",
"[  c #944200",
"{  c #9C4200",
"}  c #9C4A10",
"|  c #9C5218",
" . c #A54200",
".. c #A54A00",
"X. c #AD4A00",
"o. c #A54A10",
"O. c #A55218",
"+. c #AD5218",
"@. c #844229",
"#. c #A55239",
"$. c #A55A39",
"%. c #AD6329",
"&. c #844A4A",
"*. c #9C5A4A",
"=. c #A55A4A",
"-. c #A5634A",
";. c #846B63",
":. c #8C7B7B",
">. c #AD736B",
",. c #B5736B",
"<. c #AD7B7B",
"1. c #B57B7B",
"2. c #9C846B",
"3. c #A5847B",
"4. c #B5947B",
"5. c #31428C",
"6. c #395A84",
"7. c #425A8C",
"8. c #525A8C",
"9. c #425294",
"0. c #426B94",
"q. c #426B9C",
"w. c #4252AD",
"e. c #6B5AA5",
"r. c #4A73AD",
"t. c #6B7BAD",
"y. c #6B73DE",
"u. c #5273E7",
"i. c #637BE7",
"p. c #737BEF",
"a. c #8C6384",
"s. c #846394",
"d. c #B57B84",
"f. c #947BC6",
"g. c #738CE7",
"h. c #848484",
"j. c #84848C",
"k. c #9C8484",
"l. c #94848C",
"z. c gray58",
"x. c #BD8484",
"c. c #AD948C",
"v. c #B594B5",
"b. c #BD94B5",
"n. c #BD9CB5",
"m. c #A5A5A5",
"M. c #B5ADA5",
"N. c #C69CB5",
"B. c #8C84D6",
"V. c #A594C6",
"C. c #BD9CC6",
"Z. c #BDA5D6",
"A. c #948CE7",
"S. c #9C94E7",
"D. c #9C94F7",
"F. c #A59CE7",
"G. c #BD9CE7",
"H. c #A59CF7",
"J. c #BDADE7",
"K. c #A5A5F7",
"L. c #ADA5F7",
"P. c #A5A5FF",
"I. c #B5B5FF",
"U. c #BDBDFF",
"Y. c #C6A5C6",
"T. c #CEBDC6",
"R. c #C6A5D6",
"E. c #C6B5D6",
"W. c #C6B5E7",
"Q. c #CEBDE7",
"!. c #D6BDE7",
"~. c #C6BDF7",
"^. c #B5C6F7",
"/. c #C6C6C6",
"(. c #DEC6C6",
"). c #DECED6",
"_. c gray84",
"`. c #DEC6E7",
"'. c #D6DEE7",
"]. c #CEC6F7",
"[. c #C6C6FF",
"{. c #CECEFF",
"}. c #D6CEFF",
"|. c #CED6FF",
" X c #DED6F7",
".X c #DED6FF",
"XX c #DEDEFF",
"oX c #E7D6E7",
"OX c #E7CEF7",
"+X c #E7DEF7",
"@X c #E7D6FF",
"#X c #E7DEFF",
"$X c #E7E7E7",
"%X c #E7E7FF",
"&X c #EFE7FF",
"*X c #EFEFFF",
"=X c #F7EFFF",
"-X c gray97",
";X c #FFF7F7",
":X c #F7F7FF",
">X c #FFF7FF",
",X c #F7FFFF",
"<X c white",
/* pixels */
"................................................................",
"....{ x > # # @ 1 M ....X.X.X.X.X.....X.X...{ a @ # # @ a ' [ ..",
"..[ 2 % 5 r K w % @ c  .[ {  .[  .{  .....[ @ # 8 G r 7 % , ` ..",
"..k # = 5 8 H 6.0.w @ a ' ' [ { ..{ { ..` > 5 q.6.G 5 = * # 3 ..",
"..M ; 6 > S L 5 r q.w X h `  . . .{ { ] @ 8 r.r # A L F & 3 x ..",
"..' i f f a e.p.5.8 T 5 1 n '  .{ ] [ p * 7.5 5.y.e.l i a 1 ' ..",
"..{ x f C H.{.%XXXi.9 I $ h v [ [ ` n @ U r w.|.%X{.F.W a x { ..",
"..' v z L.XX<X<X<X:Xg.J = s m ` ` ` h 8 G u.:X<X<X<X%XL.Z a m ..",
"..n s S.XX<X<X<X<X<X:Xt.r 4 M ' ' ' , P 9.:X<X<X<X<X<XXXD.d x ..",
"..x / [.:X<X<X<X<X<X<X*X~ 7 M { { ` 0 Y ,X<X<X<X<X<X<X:X[.^ 1 ..",
"..` A.XX<X<X<X<X<X<X<X<Xc.e j ....b D ^.<X<X<X<X<X<X<X<XXXD.N ..",
"..&.I.*X<X<X<X<X<X<X<X<X;X! q X...V 8.<X<X<X<X<X<X<X<X<X:XI.Q ..",
"..a.{.<X<X<Xm.= X     R m.M.t ' { 9 './.y X   X y h.<X<X<X{.s...",
"..f.XX<X<X<X=           y _.l.h B j.-X(           X <X<X<XXXB...",
"..K.%X<X<X<X$X_ E E E z.-X<X(.v v T.<X-Xh.R E E z.$X<X<X<X*XP...",
"..I.:X<X<X<X<X<X<X<X<X<X<X<X+Xz f  X<X<X<X<X<X<X<X<X<X<X<X:XU...",
"..U.:X<X<X<X<X<X<X<X<X<X<X<XQ.m n E.<X<X<X<X<X<X<X<X<X<X<X<X[...",
"..I.:X<X<X<X<X<X<X<X<X<X<X>Xx.X.X.1.=X<X<X<X<X<X<X<X<X<X<X:XU...",
"..V.%X<X<X<X<X<X<X<X<X<X<XOXO. . .o.`.>X<X<X<X<X<X<X<X<X<X%XH...",
"..&.W.&X:X<X<X<X<X<X<X<X@X-.{ { { { -.OX:X<X<X<X<X<X<X<X*X~.Q ..",
"..' =.b.}.*X:X*X:X>X*X].*.{  . . .{ { =.!.&X:X:X*X:X*X.XG.*.m ..",
"..[  ...$.d.n.Y.Z.C.<.+...X.X.X.X.X.....o.>.v.J.R.N.,.#...{ ` ..",
"..{ ....X.X.X..... .{ [ [ ' ` ` ` ` ' [ { {  .....X.X.X... .] ..",
".. .....%... .[ ' n f < - O O + : O + : u x ` ' {  .....{ ..{ ..",
".. .....).| ` f - .     : x ' [ ' n u +     O 1 v ' { oXo...{ ..",
".. . .{ &Xk.o       < n [ {  . . . .{ ' f O     . < 3.=X} .. ...",
"..[ ` k #X:X0   ; c ' [ [ [ [ ] ] [ [ [ ] m 1 O   6 *X*X@.' { ..",
"..a o % XX<X) h m ` ' ` ` ` ` ` ` ` ` ` ` ` ` x : ) <X%X6 < x ..",
"..m f < ;.4.n m m m m ` m m m ` ` m ` ' ' ' m n n x 2.:.1 g m ..",
"..{ ' n c n c c c m ] [ [ { { [ ' ' ' ' ' { { [ ` v c c c n [ ..",
".. .{ [ ` ' ' [ [ [ { { { { { { {  .{ { { { { .. .{ { ' [ { ....",
"................................................................"
};
