/* XPM */
static char *_885_f38630d7877b08bee740bd9abe9094d6b571436d616dd7db3684bb230482787d[] = {
/* columns rows colors chars-per-pixel */
"128 128 5 1 ",
"  c black",
". c #98E0F8",
"X c #B0F0F8",
"o c #D0F8F8",
"O c #F8F8F8",
/* pixels */
".............................................................................................................................   ",
".............................................................................................................................   ",
".............................................................................................................................   ",
".............................................................................................................................   ",
".............................................................................................................................   ",
".............................................................................................................................   ",
".............................................................................................................................   ",
".............................................................................................................................   ",
".............................................................................................................................   ",
".............................................................................................................................   ",
".............................................................................................................................   ",
".............................................................................................................................   ",
".............................................................................................................................   ",
".............................................................................................................................   ",
".............................................................................................................................   ",
".............................................................................................................................   ",
".............................................................................................................................   ",
".............................................................................................................................   ",
".............................................................................................................................   ",
".............................................................................................................................   ",
".............................................................................................................................   ",
".............................................................................................................................   ",
".............................................................................................................................   ",
".............................................................................................................................   ",
".............................................................................................................................   ",
".............................................................................................................................   ",
".............................................................................................................................   ",
".............................................................................................................................   ",
".............................................................................................................................   ",
".............................................................................................................................   ",
".............................................................................................................................   ",
".............................................................................................................................   ",
".............................................................................................................................   ",
".............................................................................................................................   ",
".............................................................................................................................   ",
".............................................................................................................................   ",
".............................................................................................................................   ",
".............................................................................................................................   ",
".............................................................................................................................   ",
".............................................................................................................................   ",
".............................................................................................................................   ",
".............................................................................................................................   ",
".............................................................................................................................   ",
".............................................................................................................................   ",
".............................................................................................................................   ",
".............................................................................................................................   ",
".............................................................................................................................   ",
"ooOOOOOOOOOOOOOOOOooXXX.............................................XXXooOOOOOOOOOOOOOOOooXXX................................   ",
"OOOOOOOOOOOOOOOOOOOOOOOOOoXX...................................XXooOOOOOOOOOOOOOOOOOOOOOOOOOOOOoXX...........................   ",
"OOOOOOOOOOOOOOOOOOOOOOOOOOOOOoX.............................XoOOOOOOOOOOOOOOOOOOOOOOOOOOOOOOOOOOOOOoX........................   ",
"OOOOOOOOOOOOOOOOOOOOOOOOOOOOOOOoX.........................XoOOOOOOOOOOOOOOOOOOOOOOOOOOOOOOOOOOOOOOOOOoX......................   ",
"OOOOOOOOOOOOOOOOOOOOOOOOOOOOOOOOOoX.....................XoOOOOOOOOOOOOOOOOOOOOOOOOOOOOOOOOOOOOOOOOOOOOOoX....................   ",
"OOOOOOOOOOOOOOOOOOOOOOOOOOOOOOOOOOooX.................XooOOOOOOOOOOOOOOOOOOOOOOOOOOOOOOOOOOOOOOOOOOOOOOOooX..................   ",
"OOOOOOOOOOOOOOOOOOOOOOOOOOOOOOOOOOOooX...............XooOOOOOOOOOOOOOOOOOOOOOOOOOOOOOOOOOOOOOOOOOOOOOOOOOooX.................   ",
"OOOOOOOOOOOOOOOOOOOOOOOOOOOOOOOOOOOooX...............XooOOOOOOOOOOOOOOOOOOOOOOOOOOOOOOOOOOOOOOOOOOOOOOOOOooX.................   ",
"OOOOOOOOOOOOOOOOOOOOOOOOOOOOOoooOOoXoX...............XoooOOooooOOOOOOOOOOOOOOOOOOOOOOOOOOOOOOOOOOOOoooOOoXoX.................   ",
"oOOOOOOOOOOOOOOOooooOOOOOOOoooooooXXXX...............XXoXXXoooooOOOOOOooOOOOOOOOOOOOOOooooOOOOOOOoooooooXXXX.................   ",
"ooooOOOOOOOOOOooooooOOOOOOooooXXXXXXX.................XXXXXXXooooOOOoooooooOOOOOOOOOooooooOOOOOOooooXXXXXXX..................   ",
"oooooooOOOOoooooooooooXXXooooXXXXXX.....................XXXXXXooooooooooooooooOOOOooooooooooXXXooooXXXXXX....................   ",
"oooooooooXXoooooooooXXXXXXooXXXXX.........................XXXXXooooXXXooooooooooXXooooooooXXXXXXooXXXXX......................   ",
"XooooooXXXXXXoooooXXXXXXXXXXXXX.............................XXXXooXXXXXXooooooXXXXXXooooXXXXXXXXXXXXX........................   ",
"XXoooXXXXXXXXXooXXXXXXXXXXXX...................................XXXXXXXXXXoooXXXXXXXXooXXXXXXXXXXXX...........................   ",
"XXXXXXXXXXXXXXXXXXXXXXX.............................................XXXXXXXXXXXXXXXXXXXXXXXXX................................   ",
".............................................................................................................................   ",
".............................................................................................................................   ",
".............................................................................................................................   ",
".............................................................................................................................   ",
".............................................................................................................................   ",
".............................................................................................................................   ",
".............................................................................................................................   ",
".............................................................................................................................   ",
".............................................................................................................................   ",
".............................................................................................................................   ",
".............................................................................................................................   ",
".............................................................................................................................   ",
".............................................................................................................................   ",
".............................................................................................................................   ",
".............................................................................................................................   ",
".............................................................................................................................   ",
".............................................................................................................................   ",
".............................................................................................................................   ",
"OOooXX............................XXooOOOOOOOOOOOooXX............................XXoOOOOOOOOOOOOooXX.........................   ",
"OOOOOOOoXX....................XXoOOOOOOOOOOOOOOOOOOOOOoXX....................XXoOOOOOOOOOOOOOOOOOOOOOoXX.....................   ",
"OOOOOOOOOOoXX...............XoOOOOOOOOOOOOOOOOOOOOOOOOOOOoXX...............XoOOOOOOOOOOOOOOOOOOOOOOOOOOOoXX..................   ",
"OOOOOOOOOOOOOoX..........XoOOOOOOOOOOOOOOOOOOOOOOOOOOOOOOOOOoX..........XoOOOOOOOOOOOOOOOOOOOOOOOOOOOOOOOOOoX................   ",
"OOOOOOOOOOOOOoX..........XoooOOOOOOOOOOOOOOOOOOOOOOOOOOOOOOOoX..........XoooOOOOOOOOOOOOOOOOOOOOOOOOOOOOOOOoX................   ",
"OooOOOOOoooOoXX...........XooooOOOOOOOOOOOOOOOOOooOOOOOoooOoXX...........XooooOOOOOOOOOOOOOOOOOooOOOOOoooOoXX................   ",
"ooooOOoooooXXX............XXXXoOOoooOOOOooOOOOoooooOOoooooXXX............XXXXoOOoooOOOoooOOOOoooooOOoooooXXX.................   ",
"ooooXXXXooXXX...............XXXooooooOOooooOOooooooXXXXooXXX...............XXXooooooOoooooOOooooooXXXXooXXX..................   ",
"ooXXXXXXXX....................XXXoXXXXXoooXXXXXooXXXXXXXX....................XXXoXXXXooooXXXXXooXXXXXXXX.....................   ",
"XXXXXX............................XXXXXXXXXXXXXXXXXXX............................XXXXXXXXXXXXXXXXXXX.........................   ",
".............................................................................................................................   ",
".............................................................................................................................   ",
".............................................................................................................................   ",
".............................................................................................................................   ",
".............................................................................................................................   ",
".............................................................................................................................   ",
".............................................................................................................................   ",
".............................................................................................................................   ",
".............................................................................................................................   ",
".............................................................................................................................   ",
".............................................................................................................................   ",
"................XXooOOOOOOOOOooXX......................XXooOOOOOOOOOooXX..............................XXooOOOOOOOOOooXX......   ",
".............XoOOOOOOOOOOOOOOOOOOOoX................XoOOOOOOOOOOOOOOOOOOOoX........................XoOOOOOOOOOOOOOOOOOOOoX...   ",
"...........XoOOOOOOOOOOOOOOOOOOOOOOOoX............XoOOOOOOOOOOOOOOOOOOOOOOOoX....................XoOOOOOOOOOOOOOOOOOOOOOOOoX.   ",
"..........XoOOOOOOOOOOOOOOOOOOOOOOOOOoX..........XoOOOOOOOOOOOOOOOOOOOOOOOOOoX..................XoOOOOOOOOOOOOOOOOOOOOOOOOOoX   ",
"..........XoooOOOOOOOOOOOOOOOOOOOOOOooX..........XoooOOOOOOOOOOOOOOOOOOOOOOooX..................XoooOOOOOOOOOOOOOOOOOOOOOOooX   ",
"...........XooXXoooOOOooooOOOOooooOoXX............XooXXoooOOOooooOOOOooooOoXX....................XooXXoooOOOooooOOOOooooOoXX.   ",
".............XXXXXooXXXooooXXXooooXXX...............XXXXXooXXXooooXXXooooXXX.......................XXXXXooXXXooooXXXooooXXX..   ",
"................XXXXXXXXXXXXXXXXX......................XXXXXXXXXXXXXXXXX..............................XXXXXXXXXXXXXXXXX......   ",
".............................................................................................................................   ",
".............................................................................................................................   ",
".............................................................................................................................   ",
".............................................................................................................................   ",
".............................................................................................................................   ",
".............................................................................................................................   ",
".............................................................................................................................   ",
".............................................................................................................................   ",
".............................................................................................................................   ",
".............................................................................................................................   ",
".............................................................................................................................   ",
".............................................................................................................................   ",
".............................................................................................................................   ",
".............................................................................................................................   ",
".............................................................................................................................   ",
"                                                                                                                                ",
"                                                                                                                                ",
"                                                                                                                                "
};
