/* XPM */
static char *_3bd8366d00340e5d514c71782064623[] = {
/* columns rows colors chars-per-pixel */
"32 32 149 2 ",
"   c black",
".  c #000800",
"X  c #080800",
"o  c gray3",
"O  c #100800",
"+  c #180800",
"@  c #081008",
"#  c #101008",
"$  c #101808",
"%  c #000010",
"&  c #000818",
"*  c #181810",
"=  c #211800",
"-  c #182118",
";  c #292100",
":  c #312100",
">  c #312908",
",  c #393100",
"<  c #313108",
"1  c #212118",
"2  c #001029",
"3  c #001031",
"4  c #081039",
"5  c #001839",
"6  c #081839",
"7  c #292921",
"8  c #293121",
"9  c #293129",
"0  c #313129",
"q  c #313931",
"w  c #423900",
"e  c #423908",
"r  c #4A4200",
"t  c #4A4A00",
"y  c #524A00",
"u  c #5A4A00",
"i  c #5A5208",
"p  c #4A4210",
"a  c #524A18",
"s  c #5A5210",
"d  c #635A00",
"f  c #635208",
"g  c #736B00",
"h  c #7B7300",
"j  c #736B18",
"k  c #737310",
"l  c #7B7318",
"z  c #524A21",
"x  c #4A5229",
"c  c #635A31",
"v  c #7B7321",
"b  c #7B7329",
"n  c #736B31",
"m  c #7B7B39",
"M  c #00314A",
"N  c #00394A",
"B  c #004252",
"V  c #084A52",
"C  c #006363",
"Z  c #8C8C10",
"A  c #8C8418",
"S  c #8C8C18",
"D  c #9C9C10",
"F  c #ADAD00",
"G  c #A5A510",
"H  c #949429",
"J  c #AD9C21",
"K  c #A5A531",
"L  c #A5A539",
"P  c #ADA539",
"I  c #B5AD39",
"U  c #848452",
"Y  c #8C8452",
"T  c #8C8C5A",
"R  c #94945A",
"E  c #BDB542",
"W  c #BDBD42",
"Q  c #B5AD52",
"!  c #B5B552",
"~  c #8C8C63",
"^  c #8C8C6B",
"/  c #949463",
"(  c #94946B",
")  c #9C9C6B",
"_  c #A59C73",
"`  c #ADAD7B",
"'  c #C6B542",
"]  c #C6BD42",
"[  c #C6BD4A",
"{  c #CECE42",
"}  c #CEC64A",
"|  c #CECE4A",
" . c #DEDE42",
".. c #D6D64A",
"X. c #DEDE4A",
"o. c #D6CE52",
"O. c #DEDE52",
"+. c #DED65A",
"@. c #DEDE5A",
"#. c #FFFF42",
"$. c #FFFF4A",
"%. c #D6D663",
"&. c #DEDE63",
"*. c #DEDE73",
"=. c #D6D67B",
"-. c #E7DE73",
";. c #E7E763",
":. c #E7E76B",
">. c #EFEF6B",
",. c #F7EF63",
"<. c #F7EF6B",
"1. c #F7F763",
"2. c #FFFF63",
"3. c #F7F76B",
"4. c #FFF76B",
"5. c #E7E77B",
"6. c #FFFF73",
"7. c #18A584",
"8. c #ADAD8C",
"9. c #BDBD84",
"0. c #CEC684",
"q. c #CECE84",
"w. c #C6C68C",
"e. c #CECE8C",
"r. c #D6D684",
"t. c #D6D68C",
"y. c #C6C69C",
"u. c #D6CE94",
"i. c #FFFF84",
"p. c #FFFF8C",
"a. c #EFEF9C",
"s. c #FFFF94",
"d. c #FFFF9C",
"f. c #C6C6A5",
"g. c #CECEAD",
"h. c #DEDEA5",
"j. c #D6D6B5",
"k. c #D6D6BD",
"l. c #DEDEBD",
"z. c #F7F7A5",
"x. c #FFFFA5",
"c. c #FFFFAD",
"v. c #FFFFBD",
"b. c #A5F7DE",
"n. c #DEDEC6",
"m. c #E7E7CE",
"M. c #FFFFC6",
"N. c #FFFFCE",
"B. c #FFFFE7",
/* pixels */
"x x x x x x x x x x x x x x x x x x x x x x x x x x x x x x x x ",
"x x x # - 1 9 x x x x x x x x x x x x x x x x x x 7 9 7 q x x x ",
"x x X X @ @ # * 7 x x x x x x x x x x x x x x X # . # X 1 0 x x ",
"x x . X     X X   * 1 x x x x x x x x x x     .     . X $ 8 x x ",
"x x x     .   .   X . * x x x x x x x x     . o X   . @ - x x x ",
"x x x x x x         . @ 1 x x x x x x     o     . . x x x x x x ",
"x x x x x x x x x     .   * x x x x   .     . x x x x x x x x x ",
"x x x x x x x x x x x x . X x x x x     x x x x x x x x x x x x ",
"x x x x x x x x x x x x x x x x x x x x x x x x x x x x x x x x ",
"x x x x x x x x x & 2 3 x x x x x x x x & 2 3 x x x x x x x x x ",
"x x x x x x x x % 2 B C 5 x x x x x x % 2 B C 5 x x x x x x x x ",
"x x x x x x x x % 6 7.b.M x x x x x x % 6 7.b.M x x x x x x x x ",
"x x x x x x x x % 2 N V 4 x x x x x x % 2 N V 4 x x x x x x x x ",
"x x x x x x x x % & 2 6 % x x x x x x % & 2 6 % x x x x x x x x ",
"x x x x x x x x x % % % x x x x x x x x % % % x x x x x x x x x ",
"x X X x x x x x x x x x x x x x x x x x x x x x x x x x x X X x ",
"x X x x x x x x x x x x x x x x x x x x x x x x x x x x x x X x ",
"x X X X X X X X X X X X X X X X X X X X X X X X X X X X X X X x ",
"x x X + = O t m ~ = h Z / ; F D T ; F Z U = G ~ ( = d a ; X x x ",
"x x X = c = k ` g.w H ! g.y ..%.y.y ..=.f.w O.m.l.y { 8.p X x x ",
"x x X w / , S w.m.j W *.B.j 1.i.N.j 6.x.B.j 6.B.B.j 6.j.b X x x ",
"x x X e ) , A 9.n.j E 5.B.j ,.6.x.j <.x.B.j 4.B.B.j 6.k.z X x x ",
"x x X X L : l K | a P +.3.a } @.:.a [ &.>.a ] ;.6.a o.6.O X x x ",
"x x x X >   X X X   > > >   > > >   > > >   > > >   > > X x x x ",
"x x x X X u I u.m.j 6.B.B.j 6.B.B.j 6.B.B.j 6.B.B.j 6.X X x x x ",
"x x x x X f E *.a.g #.s.c.g $.d.c.g #.d.v.g 2.M.N.j } X x x x x ",
"x x x x X X ' -.z.g #.p.x.g $.s.x.g #.s.c.g  .a.N.X X X x x x x ",
"x x x x x X X X h.s X.a.a.i X.a.a.i X.a.a.r J 0.X X X x x x x x ",
"x x x x x x x X X X Q q.e.w { t.t.w { r.t.X X X X x x x x x x x ",
"x x x x x x x x x X X X ^ ; v R _ < n Y X X X x x x x x x x x x ",
"x x x x x x x x x x x X X X X X X X X X X x x x x x x x x x x x ",
"x x x x x x x x x x x x x x x x x x x x x x x x x x x x x x x x "
};
