/* XPM */
static char *_000_02497553b36e397a56d2805da4c4b57e031f28475b5fb4c30343c27a235563d2[] = {
/* columns rows colors chars-per-pixel */
"64 64 6 1 ",
"  c #B07018",
". c #C88830",
"X c #C08040",
"o c #D0A058",
"O c #E8C060",
"+ c #F0E098",
/* pixels */
"OO++OOOOOOo o++OOO++OOOOOOo o++OOO++OOOOOOo o++OOO++OOOOOOo o++O",
"oO+++OOO++OO+++OoO+++OOO++OO+++OoO+++OOO++OO+++OoO+++OOO++OO+++O",
"ooO+++OO+OO++OOoooO+++OO+OO++OOoooO+++OO+OO++OOoooO+++OO+OO++OOo",
".ooO+++OOO++OOo .ooO+++OOO++OOo .ooO+++OOO++OOo .ooO+++OOO++OOo ",
". ..O+++O++OOo .. ..O+++O++OOo .. ..O+++O++OOo .. ..O+++O++OOo .",
"oX .oO++++OOo X oX .oO++++OOo X oX .oO++++OOo X oX .oO++++OOo X ",
"oXX .oO+++Oo   ooXX .oO+++Oo   ooXX .oO+++Oo   ooXX .oO+++Oo   o",
"OooXX.oOOoo X .oOooXX.oOOoo X .oOooXX.oOOoo X .oOooXX.oOOoo X .o",
"OOOoOOOoOO+O.oOOOOOoOOOoOO+O.oOOOOOoOOOoOO+O.oOOOOOoOOOoOO+O.oOO",
"+OO++OO..O+++OO++OO++OO..O+++OO++OO++OO..O+++OO++OO++OO..O+++OO+",
"OO++Oooo.oO+++O+OO++Oooo.oO+++O+OO++Oooo.oO+++O+OO++Oooo.oO+++O+",
"O+++ooX...oO+++OO+++ooX...oO+++OO+++ooX...oO+++OO+++ooX...oO+++O",
"+++oo X.. .oO++++++oo X.. .oO++++++oo X.. .oO++++++oo X.. .oO+++",
"++Oo.X oo. .oO++++Oo.X oo. .oO++++Oo.X oo. .oO++++Oo.X oo. .oO++",
"OOo.X .Ooo.X.oOOOOo.X .Ooo.X.oOOOOo.X .Ooo.X.oOOOOo.X .Ooo.X.oOO",
"OooXXoOOOoo  .oOOooXXoOOOoo  .oOOooXXoOOOoo  .oOOooXXoOOOoo  .oO",
"OO++OOOOOOo o++OOO++OOOOOOo o++OOO++OOOOOOo o++OOO++OOOOOOo o++O",
"oO+++OOO++OO+++OoO+++OOO++OO+++OoO+++OOO++OO+++OoO+++OOO++OO+++O",
"ooO+++OO+OO++OOoooO+++OO+OO++OOoooO+++OO+OO++OOoooO+++OO+OO++OOo",
".ooO+++OOO++OOo .ooO+++OOO++OOo .ooO+++OOO++OOo .ooO+++OOO++OOo ",
". ..O+++O++OOo .. ..O+++O++OOo .. ..O+++O++OOo .. ..O+++O++OOo .",
"oX .oO++++OOo X oX .oO++++OOo X oX .oO++++OOo X oX .oO++++OOo X ",
"oXX .oO+++Oo   ooXX .oO+++Oo   ooXX .oO+++Oo   ooXX .oO+++Oo   o",
"OooXX.oOOoo X .oOooXX.oOOoo X .oOooXX.oOOoo X .oOooXX.oOOoo X .o",
"OOOoOOOoOO+O.oOOOOOoOOOoOO+O.oOOOOOoOOOoOO+O.oOOOOOoOOOoOO+O.oOO",
"+OO++OO..O+++OO++OO++OO..O+++OO++OO++OO..O+++OO++OO++OO..O+++OO+",
"OO++Oooo.oO+++O+OO++Oooo.oO+++O+OO++Oooo.oO+++O+OO++Oooo.oO+++O+",
"O+++ooX...oO+++OO+++ooX...oO+++OO+++ooX...oO+++OO+++ooX...oO+++O",
"+++oo X.. .oO++++++oo X.. .oO++++++oo X.. .oO++++++oo X.. .oO+++",
"++Oo.X oo. .oO++++Oo.X oo. .oO++++Oo.X oo. .oO++++Oo.X oo. .oO++",
"OOo.X .Ooo.X.oOOOOo.X .Ooo.X.oOOOOo.X .Ooo.X.oOOOOo.X .Ooo.X.oOO",
"OooXXoOOOoo  .oOOooXXoOOOoo  .oOOooXXoOOOoo  .oOOooXXoOOOoo  .oO",
"OO++OOOOOOo o++OOO++OOOOOOo o++OOO++OOOOOOo o++OOO++OOOOOOo o++O",
"oO+++OOO++OO+++OoO+++OOO++OO+++OoO+++OOO++OO+++OoO+++OOO++OO+++O",
"ooO+++OO+OO++OOoooO+++OO+OO++OOoooO+++OO+OO++OOoooO+++OO+OO++OOo",
".ooO+++OOO++OOo .ooO+++OOO++OOo .ooO+++OOO++OOo .ooO+++OOO++OOo ",
". ..O+++O++OOo .. ..O+++O++OOo .. ..O+++O++OOo .. ..O+++O++OOo .",
"oX .oO++++OOo X oX .oO++++OOo X oX .oO++++OOo X oX .oO++++OOo X ",
"oXX .oO+++Oo   ooXX .oO+++Oo   ooXX .oO+++Oo   ooXX .oO+++Oo   o",
"OooXX.oOOoo X .oOooXX.oOOoo X .oOooXX.oOOoo X .oOooXX.oOOoo X .o",
"OOOoOOOoOO+O.oOOOOOoOOOoOO+O.oOOOOOoOOOoOO+O.oOOOOOoOOOoOO+O.oOO",
"+OO++OO..O+++OO++OO++OO..O+++OO++OO++OO..O+++OO++OO++OO..O+++OO+",
"OO++Oooo.oO+++O+OO++Oooo.oO+++O+OO++Oooo.oO+++O+OO++Oooo.oO+++O+",
"O+++ooX...oO+++OO+++ooX...oO+++OO+++ooX...oO+++OO+++ooX...oO+++O",
"+++oo X.. .oO++++++oo X.. .oO++++++oo X.. .oO++++++oo X.. .oO+++",
"++Oo.X oo. .oO++++Oo.X oo. .oO++++Oo.X oo. .oO++++Oo.X oo. .oO++",
"OOo.X .Ooo.X.oOOOOo.X .Ooo.X.oOOOOo.X .Ooo.X.oOOOOo.X .Ooo.X.oOO",
"OooXXoOOOoo  .oOOooXXoOOOoo  .oOOooXXoOOOoo  .oOOooXXoOOOoo  .oO",
"OO++OOOOOOo o++OOO++OOOOOOo o++OOO++OOOOOOo o++OOO++OOOOOOo o++O",
"oO+++OOO++OO+++OoO+++OOO++OO+++OoO+++OOO++OO+++OoO+++OOO++OO+++O",
"ooO+++OO+OO++OOoooO+++OO+OO++OOoooO+++OO+OO++OOoooO+++OO+OO++OOo",
".ooO+++OOO++OOo .ooO+++OOO++OOo .ooO+++OOO++OOo .ooO+++OOO++OOo ",
". ..O+++O++OOo .. ..O+++O++OOo .. ..O+++O++OOo .. ..O+++O++OOo .",
"oX .oO++++OOo X oX .oO++++OOo X oX .oO++++OOo X oX .oO++++OOo X ",
"oXX .oO+++Oo   ooXX .oO+++Oo   ooXX .oO+++Oo   ooXX .oO+++Oo   o",
"OooXX.oOOoo X .oOooXX.oOOoo X .oOooXX.oOOoo X .oOooXX.oOOoo X .o",
"OOOoOOOoOO+O.oOOOOOoOOOoOO+O.oOOOOOoOOOoOO+O.oOOOOOoOOOoOO+O.oOO",
"+OO++OO..O+++OO++OO++OO..O+++OO++OO++OO..O+++OO++OO++OO..O+++OO+",
"OO++Oooo.oO+++O+OO++Oooo.oO+++O+OO++Oooo.oO+++O+OO++Oooo.oO+++O+",
"O+++ooX...oO+++OO+++ooX...oO+++OO+++ooX...oO+++OO+++ooX...oO+++O",
"+++oo X.. .oO++++++oo X.. .oO++++++oo X.. .oO++++++oo X.. .oO+++",
"++Oo.X oo. .oO++++Oo.X oo. .oO++++Oo.X oo. .oO++++Oo.X oo. .oO++",
"OOo.X .Ooo.X.oOOOOo.X .Ooo.X.oOOOOo.X .Ooo.X.oOOOOo.X .Ooo.X.oOO",
"OooXXoOOOoo  .oOOooXXoOOOoo  .oOOooXXoOOOoo  .oOOooXXoOOOoo  .oO"
};
