/* XPM */
static char *b66ad8cfa04745d88f1e05482f9f8041[] = {
/* columns rows colors chars-per-pixel */
"64 64 6 1 ",
"  c #D7D7D7",
". c #E1E1E1",
"X c #E7E7E7",
"o c #EAEAEA",
"O c gray97",
"+ c gray99",
/* pixels */
"  ..XOOOOoooXXXo  ..XOOOOoooXXXo  ..XOOOOoooXXXo  ..XOOOOoooXXXo",
".OOOOOOOoXoXoXoo.OOOOOOOoXoXoXoo.OOOOOOOoXoXoXoo.OOOOOOOoXoXoXoo",
".OOO+O+OXXoXXXXX.OOO+O+OXXoXXXXX.OOO+O+OXXoXXXXX.OOO+O+OXXoXXXXX",
".O+OOOOOoXXXooo .O+OOOOOoXXXooo .O+OOOOOoXXXooo .O+OOOOOoXXXooo ",
"XOOOOoooXXXo   .XOOOOoooXXXo   .XOOOOoooXXXo   .XOOOOoooXXXo   .",
"OOOOooXXooXo   .OOOOooXXooXo   .OOOOooXXooXo   .OOOOooXXooXo   .",
"OO+OoXXXXXoo....OO+OoXXXXXoo....OO+OoXXXXXoo....OO+OoXXXXXoo....",
"OOOOoXoXoXo.. .OOOOOoXoXoXo.. .OOOOOoXoXoXo.. .OOOOOoXoXoXo.. .O",
"OoXoXoXX....XOOOOoXoXoXX....XOOOOoXoXoXX....XOOOOoXoXoXX....XOOO",
"oXXoXXXo.OOOOOOOoXXoXXXo.OOOOOOOoXXoXXXo.OOOOOOOoXXoXXXo.OOOOOOO",
"oXoXXXoX.OOO+OOOoXoXXXoX.OOO+OOOoXoXXXoX.OOO+OOOoXoXXXoX.OOO+OOO",
"oooXooo..OOOOOO+oooXooo..OOOOOO+oooXooo..OOOOOO+oooXooo..OOOOOO+",
"XXXo  ..XO+OOoXoXXXo  ..XO+OOoXoXXXo  ..XO+OOoXoXXXo  ..XO+OOoXo",
"oooo  ..OOOOoooooooo  ..OOOOoooooooo  ..OOOOoooooooo  ..OOOOoooo",
"XoXo ...OOOOooXXXoXo ...OOOOooXXXoXo ...OOOOooXXXoXo ...OOOOooXX",
"XXX....OOOOOoooXXXX....OOOOOoooXXXX....OOOOOoooXXXX....OOOOOoooX",
"  ..XOOOOoooXXXo  ..XOOOOoooXXXo  ..XOOOOoooXXXo  ..XOOOOoooXXXo",
".OOOOOOOoXoXoXoo.OOOOOOOoXoXoXoo.OOOOOOOoXoXoXoo.OOOOOOOoXoXoXoo",
".OOO+O+OXXoXXXXX.OOO+O+OXXoXXXXX.OOO+O+OXXoXXXXX.OOO+O+OXXoXXXXX",
".O+OOOOOoXXXooo .O+OOOOOoXXXooo .O+OOOOOoXXXooo .O+OOOOOoXXXooo ",
"XOOOOoooXXXo   .XOOOOoooXXXo   .XOOOOoooXXXo   .XOOOOoooXXXo   .",
"OOOOooXXooXo   .OOOOooXXooXo   .OOOOooXXooXo   .OOOOooXXooXo   .",
"OO+OoXXXXXoo....OO+OoXXXXXoo....OO+OoXXXXXoo....OO+OoXXXXXoo....",
"OOOOoXoXoXo.. .OOOOOoXoXoXo.. .OOOOOoXoXoXo.. .OOOOOoXoXoXo.. .O",
"OoXoXoXX....XOOOOoXoXoXX....XOOOOoXoXoXX....XOOOOoXoXoXX....XOOO",
"oXXoXXXo.OOOOOOOoXXoXXXo.OOOOOOOoXXoXXXo.OOOOOOOoXXoXXXo.OOOOOOO",
"oXoXXXoX.OOO+OOOoXoXXXoX.OOO+OOOoXoXXXoX.OOO+OOOoXoXXXoX.OOO+OOO",
"oooXooo..OOOOOO+oooXooo..OOOOOO+oooXooo..OOOOOO+oooXooo..OOOOOO+",
"XXXo  ..XO+OOoXoXXXo  ..XO+OOoXoXXXo  ..XO+OOoXoXXXo  ..XO+OOoXo",
"oooo  ..OOOOoooooooo  ..OOOOoooooooo  ..OOOOoooooooo  ..OOOOoooo",
"XoXo ...OOOOooXXXoXo ...OOOOooXXXoXo ...OOOOooXXXoXo ...OOOOooXX",
"XXX....OOOOOoooXXXX....OOOOOoooXXXX....OOOOOoooXXXX....OOOOOoooX",
"  ..XOOOOoooXXXo  ..XOOOOoooXXXo  ..XOOOOoooXXXo  ..XOOOOoooXXXo",
".OOOOOOOoXoXoXoo.OOOOOOOoXoXoXoo.OOOOOOOoXoXoXoo.OOOOOOOoXoXoXoo",
".OOO+O+OXXoXXXXX.OOO+O+OXXoXXXXX.OOO+O+OXXoXXXXX.OOO+O+OXXoXXXXX",
".O+OOOOOoXXXooo .O+OOOOOoXXXooo .O+OOOOOoXXXooo .O+OOOOOoXXXooo ",
"XOOOOoooXXXo   .XOOOOoooXXXo   .XOOOOoooXXXo   .XOOOOoooXXXo   .",
"OOOOooXXooXo   .OOOOooXXooXo   .OOOOooXXooXo   .OOOOooXXooXo   .",
"OO+OoXXXXXoo....OO+OoXXXXXoo....OO+OoXXXXXoo....OO+OoXXXXXoo....",
"OOOOoXoXoXo.. .OOOOOoXoXoXo.. .OOOOOoXoXoXo.. .OOOOOoXoXoXo.. .O",
"OoXoXoXX....XOOOOoXoXoXX....XOOOOoXoXoXX....XOOOOoXoXoXX....XOOO",
"oXXoXXXo.OOOOOOOoXXoXXXo.OOOOOOOoXXoXXXo.OOOOOOOoXXoXXXo.OOOOOOO",
"oXoXXXoX.OOO+OOOoXoXXXoX.OOO+OOOoXoXXXoX.OOO+OOOoXoXXXoX.OOO+OOO",
"oooXooo..OOOOOO+oooXooo..OOOOOO+oooXooo..OOOOOO+oooXooo..OOOOOO+",
"XXXo  ..XO+OOoXoXXXo  ..XO+OOoXoXXXo  ..XO+OOoXoXXXo  ..XO+OOoXo",
"oooo  ..OOOOoooooooo  ..OOOOoooooooo  ..OOOOoooooooo  ..OOOOoooo",
"XoXo ...OOOOooXXXoXo ...OOOOooXXXoXo ...OOOOooXXXoXo ...OOOOooXX",
"XXX....OOOOOoooXXXX....OOOOOoooXXXX....OOOOOoooXXXX....OOOOOoooX",
"  ..XOOOOoooXXXo  ..XOOOOoooXXXo  ..XOOOOoooXXXo  ..XOOOOoooXXXo",
".OOOOOOOoXoXoXoo.OOOOOOOoXoXoXoo.OOOOOOOoXoXoXoo.OOOOOOOoXoXoXoo",
".OOO+O+OXXoXXXXX.OOO+O+OXXoXXXXX.OOO+O+OXXoXXXXX.OOO+O+OXXoXXXXX",
".O+OOOOOoXXXooo .O+OOOOOoXXXooo .O+OOOOOoXXXooo .O+OOOOOoXXXooo ",
"XOOOOoooXXXo   .XOOOOoooXXXo   .XOOOOoooXXXo   .XOOOOoooXXXo   .",
"OOOOooXXooXo   .OOOOooXXooXo   .OOOOooXXooXo   .OOOOooXXooXo   .",
"OO+OoXXXXXoo....OO+OoXXXXXoo....OO+OoXXXXXoo....OO+OoXXXXXoo....",
"OOOOoXoXoXo.. .OOOOOoXoXoXo.. .OOOOOoXoXoXo.. .OOOOOoXoXoXo.. .O",
"OoXoXoXX....XOOOOoXoXoXX....XOOOOoXoXoXX....XOOOOoXoXoXX....XOOO",
"oXXoXXXo.OOOOOOOoXXoXXXo.OOOOOOOoXXoXXXo.OOOOOOOoXXoXXXo.OOOOOOO",
"oXoXXXoX.OOO+OOOoXoXXXoX.OOO+OOOoXoXXXoX.OOO+OOOoXoXXXoX.OOO+OOO",
"oooXooo..OOOOOO+oooXooo..OOOOOO+oooXooo..OOOOOO+oooXooo..OOOOOO+",
"XXXo  ..XO+OOoXoXXXo  ..XO+OOoXoXXXo  ..XO+OOoXoXXXo  ..XO+OOoXo",
"oooo  ..OOOOoooooooo  ..OOOOoooooooo  ..OOOOoooooooo  ..OOOOoooo",
"XoXo ...OOOOooXXXoXo ...OOOOooXXXoXo ...OOOOooXXXoXo ...OOOOooXX",
"XXX....OOOOOoooXXXX....OOOOOoooXXXX....OOOOOoooXXXX....OOOOOoooX"
};
