/* XPM */
static char *_8f51a7a2bd9490d96a9ee839d5bf80d[] = {
/* columns rows colors chars-per-pixel */
"128 128 14 1 ",
"  c black",
". c #487030",
"X c #609820",
"o c #70B030",
"O c #809868",
"+ c #78B0C0",
"@ c #40B8F8",
"# c #78C0E0",
"$ c #88C0C8",
"% c #98C8C8",
"& c #A0C8D8",
"* c #C0E0E0",
"= c #E0F0F0",
"- c #F0F8F8",
/* pixels */
"@@@@@@@@@@@@@@@@@@@@@@@@@@@@@@@@@@@@@@@@@@@@@@@@@@@@@@@@@@@@@@@@@@@@@@@@@@@@@@@@@@@@@@@@@@@@@@@@@@@@@@@@@@@@@@@@@@@@@@@@@@@@@   ",
"@@@@@@@@@@@@@@@@@@@@@@@@@@@@@@@@@@@@@@@@@@@@@@@@@@@@@@@@@@@@@@@@@@@@@@@@@@@@@@@@@@@@@@@@@@@@@@@@@@@@@@@@@@@@@@@@@@@@@@@@@@@@@   ",
"@@@@@@@@@@@@@@@@@@@@@@@@@@@@@@@@@@@@@@@@@@@@@@@@@@@@@@@@@@@@@@@@@@@@@@@@@@@@@@@@@@@@@@@@@@@@@@@@@@@@@@@@@@@@@@@@@@@@@@@@@@@@@   ",
"@@@@@@@@@@@@@@@@@@@@@@@@@@@@@@@@@@@@@@@@@@@@@@@@@@@@@@@@@@@@@@@@@@@@@@@@@@@@@@@@@@@@@@@@@@@@@@@@@@@@@@@@@@@@@@@@@@@@@@@@@@@@@   ",
"@@@@@@@@@@@@@@@@@@@@@@@@@@@@@@@@@@@@@@@@@@@@@@@@@@@@@@@@@@@@@@@@@@@@@@@@@@@@@@@@@@@@@@@@@@@@@@@@@@@@@@@@@@@@@@@@@@@@@@@@@@@@@   ",
"@@@@@@@@@@@@@@@@@@@@@@@@@@@@@@@@@@@@@@@@@@@@@@@@@@@@@@@@@@@@@@@@@@@@@@@@@@@@@@@@@@@@@@@@@@@@@@@@@@@@@@@@@@@@@@@@@@@@@@@@@@@@@   ",
"@@@@@@@@@@@@@@@@@@@@@@@@@@@@@@@@@@@@@@@@@@@@@@@@@@@@@@@@@@@@@@@@@@@@@@@@@@@@@@@@@@@@@@@@@@@@@@@@@@@@@@@@@@@@@@@@@@@@@@@@@@@@@   ",
"@@@@@@@@@@@@@@@@@@@@@@@@@@@@@@@@@@@@@@@@@@@@@@@@@@@@@@@@@@@@@@@@@@@@@@@@@@@@@@@@@@@@@@@@@@@@@@@@@@@@@@@@@@@@@@@@@@@@@@@@@@@@@   ",
"@@@@@@@@@@@@@@@@@@@@@@@@@@@@@@@@@@@@@@@@@@@@@@@@@@@@@@@@@@@@@@@@@@@@@@@@@@@@@@@@@@@@@@@@@@@@@@@@@@@@@@@@@@@@@@@@@@@@@@@@@@@@@   ",
"@@@@@@@@@@@@@@@@@@@@@@@@@@@@@@@@@@@@@@@@@@@@@@@@@@@@@@@@@@@@@@@@@@@@@@@@@@@@@@@@@@@@@@@@@@@@@@@@@@@@@@@@@@@@@@@@@@@@@@@@@@@@@   ",
"@@@@@@@@@@@@@@@@@@@@@@@@@@@@@@@@@@@@@@@@@@@@@@@@@@@@@@@@@@@@@@@@@@@@@@@@@@@@@@@@@@@@@@@@@@@@@@@@@@@@@@@@@@@@@@@@@@@@@@@@@@@@@   ",
"@@@@@@@@@@@@@@@@@@@@@@@@@@@@@@@@@@@@@@@@@@@@@@@@@@@@@@@@@@@@@@@@@@@@@@@@@@@@@@@@@@@@@@@@@@@@@@@@@@@@@@@@@@@@@@@@@@@@@@@@@@@@@   ",
"@@@@@@@@@@@@@@@@@@@@@@@@@@@@@@@@@@@@@@@@@@@@@@@@@@@@@@@@@@@@@@@@@@@@@@@@@@@@@@@@@@@@@@@@@@@@@@@@@@@@@@@@@@@@@@@@@@@@@@@@@@@@@   ",
"@@@@@@@@@@@@@@@@@@@@@@@@@@@@@@@@@@@@@@@@@@@@@@@@@@@@@@@@@@@@@@@@@@@@@@@@@@@@@@@@@@@@@@@@@@@@@@@@@@@@@@@@@@@@@@@@@@@@@@@@@@@@@   ",
"@@@@@@@@@@@@@@@@@@@@@@@@@@@@@@@@@@@@@@@@@@@@@@@@@@@@@@@@@@@@@@@@@@@@@@@@@@@@@@@@@@@@@@@@@@@@@@@@@@@@@@@@@@@@@@@@@@@@@@@@@@@@@   ",
"@@@@@@@@@@@@@@@@@@@@@@@@@@@@@@@@@@@@@@@@@@@@@@@@@@@@@@@@@@@@@@@@@@@@@@@@@@@@@@@@@@@@@@@@@@@@@@@@@@@@@@@@@@@@@@@@@@@@@@@@@@@@@   ",
"@@@@@@@@@@@@@@@@@@@@@@@@@@@@@@@@@@@@@@@@@@@@@@@@@@@@@@@@@@@@@@@@@@@@@@@@@@@@@@@@@@@@@@@@@@@@@@@@@@@@@@@@@@@@@@@@@@@@@@@@@@@@@   ",
"@@@@@@@@@@@@@@@@@@@@@@@@@@@@@@@@@@@@@@@@@@@@@@@@@@@@@@@@@@@@@@@@@@@@@@@@@@@@@@@@@@@@@@@@@@@@@@@@@@@@@@@@@@@@@@@@@@@@@@@@@@@@@   ",
"@@@@@@@@@@@@@@@@@@@@@@@@@@@@@@@@@@@@@@@@@@@@@@@@@@@@@@@@@@@@@@@@@@@@@@@@@@@@@@@@@@@@@@@@@@@@@@@@@@@@@@@@@@@@@@@@@@@@@@@@@@@@@   ",
"@@@@@@@@@@@@@@@@@@@@@@@@@@@@@@@@@@@@@@@@@@@@@@@@@@@@@@@@@@@@@@@@@@@@@@@@@@@@@@@@@@@@@@@@@@@@@@@@@@@@@@@@@@@@@@@@@@@@@@@@@@@@@   ",
"@@@@@@@@@@@@@@@@@@@@@@@@@@@@@@@@@@@@@@@@@@@@@@@@@@@@@@@@@@@@@@@@@@@@@@@@@@@@@@@@@@@@@@@@@@@@@@@@@@@@@@@@@@@@@@@@@@@@@@@@@@@@@   ",
"@@@@@@@@@@@@@@@@@@@@@@@@@@@@@@@@@@@@@@@@@@@@@@@@@@@@@@@@@@@@@@@@@@@@@@@@@@@@@@@@@@@@@@@@@@@@@@@@@@@@@@@@@@@@@@@@@@@@@@@@@@@@@   ",
"@@@@@@@@@@@@@@@@@@@@@@@@@@@@@@@@@@@@@@@@@@@@@@@@@@@@@@@@@@@@@@@@@@@@@@@@@@@@@@@@@@@@@@@@@@@@@@@@@@@@@@@@@@@@@@@@@@@@@@@@@@@@@   ",
"@@@@@@@@@@@@@@@@@@@@@@@@@@@@@@@@@@@@@@@@@@@@@@@@@@@@@@@@@@@@@@@@@@@@@@@@@@@@@@@@@@@@@@@@@@@@@@@@@@@@@@@@@@@@@@@@@@@@@@@@@@@@@   ",
"@@@@@@@@@@@@@@@@@@@@@@@@@@@@@@@@@@@@@@@@@@@@@@@@@@@@@@@@@@@@@@@@@@@@@@@@@@@@@@@@@@@@@@@@@@@@@@@@@@@@@@@@@@@@@@@@@@@@@@@@@@@@@   ",
"@@@@@@@@@@@@@@@@@@@@@@@@@@@@@@@@@@@@@@@@@@@@@@@@@@@@@@@@@@@@@@@@@@@@@@@@@@@@@@@@@@@@@@@@@@@@@@@@@@@@@@@@@@@@@@@@@@@@@@@@@@@@@   ",
"@@@@@@@@@@@@@@@@@@@@@@@@@@@@@@@@@@@@@@@@@@@@@@@@@@@@@@@@@@@@@@@@@@@@@@@@@@@@@@@@@@@@@@@@@@@@@@@@@@@@@@@@@@@@@@@@@@@@@@@@@@@@@   ",
"@@@@@@@@@@@@@@@@@@@@@@@@@@@@@@@@@@@@@@@@@@@@@@@@@@@@@@@@@@@@@@@@@@@@@@@@@@@@@@@@@@@@@@@@@@@@@@@@@@@@@@@@@@@@@@@@@@@@@@@@@@@@@   ",
"@@@@@@@@@@@@@@@@@@@@@@@@@@@@@@@@@@@@@@@@@@@@@@@@@@@@@@@@@@@@@@@@@@@@@@@@@@@@@@@@@@@@@@@@@@@@@@@@@@@@@@@@@@@@@@@@@@@@@@@@@@@@@   ",
"@@@@@@@@@@@@@@@@@@@@@@@@@@@@@@@@@@@@@@@@@@@@@@@@@@@@@@@@@@@@@@@@@@@@@@@@@@@@@@@@@@@@@@@@@@@@@@@@@@@@@@@@@@@@@@@@@@@@@@@@@@@@@   ",
"@@@@@@@@@@@@@@@@@@@@@@@@@@@@@@@@@@@@@@@@@@@@@@@@@@@@@@@@@@@@@@@@@@@@@@@@@@@@@@@@@@@@@@@@@@@@@@@@@@@@@@@@@@@@@@@@@@@@@@@@@@@@@   ",
"@@@@@@@@@@@@@@@@@@@@@@@@@@@@@@@@@@@@@@@@@@@@@@@@@@@@@@@@@@@@@@@@@@@@@@@@@@@@@@@@@@@@@@@@@@@@@@@@@@@@@@@@@@@@@@@@@@@@@@@@@@@@@   ",
"@@@@@@@@@@@@@@@@@@@@@@@@@@@@@@@@@@@@@@@@@@@@@@@@@@@@@@@@@@@@@@@@@@@@@@@@@@@@@@@@@@@@@@@@@@@@@@@@@@@@@@@@@@@@@@@@@@@@@@@@@@@@@   ",
"@@@@@@@@@@@@@@@@@@@@@@@@@@@@@@@@@@@@@@@@@@@@@@@@@@@@@@@@@@@@@@@@@@@@@@@@@@@@@@@@@@@@@@@@@@@@@@@@@@@@@@@@@@@@@@@@@@@@@@@@@@@@@   ",
"@@@@@@@@@@@@@@@@@@@@@@@@@@@@@@@@@@@@@@@@@@@@@@@@@@@@@@@@@@@@@@@@@@@@@@@@@@@@@@@@@@@@@@@@@@@@@@@@@@@@@@@@@@@@@@@@@@@@@@@@@@@@@   ",
"@@@@@@@@@@@@@@@@@@@@@@@@@@@@@@@@@@@@@@@@@@@@@@@@@@@@@@@@@@@@@@@@@@@@@@@@@@@@@@@@@@@@@@@@@@@@@@@@@@@@@@@@@@@@@@@@@@@@@@@@@@@@@   ",
"@@@@@@@@@@@@@@@@@@@@@@@@@@@@@@@@@@@@@@@@@@@@@@@@@@@@@@@@@@@@@@@@@@@@@@@@@@@@@@@@@@@@@@@@@@@@@@@@@@@@@@@@@@@@@@@@@@@@@@@@@@@@@   ",
"@@@@@@@@@@@@@@@@@@@@@@@@@@@@@@@@@@@@@@@@@@@@@@@@@@@@@@@@@@@@@@@@@@@@@@@@@@@@@@@@@@@@@@@@@@@@@@@@@@@@@@@@@@@@@@@@@@@@@@@@@@@@@   ",
"@@@@@@@@@@@@@@@@@@@@@@@@@@@@@@@@@@@@@@@@@@@@@@@@@@@@@@@@@@@@@@@@@@@@@@@@@@@@@@@@@@@@@@@@@@@@@@@@@@@@@@@@@@@@@@@@@@@@@@@@@@@@@   ",
"@@@@@@@@@@@@@@@@@@@@@@@@@@@@@@@@@@@@@@@@@@@@@@@@@@@@@@@@@@@@@@@@@@@@@@@@@@@@@@@@@@@@@@@@@@@@@@@@@@@@@@@@@@@@@@@@@@@@@@@@@@@@@   ",
"@@@@@@@@@@@@@@@@@@@@@@@@@@@@@@@@@@@@@@@@@@@@@@@@@@@@@@@@@@@@@@@@@@@@@@@@@@@@@@@@@@@@@@@@@@@@@@@@@@@@@@@@@@@@@@@@@@@@@@@@@@@@@   ",
"@@@@@@@@@@@@@@@@@@@@@@@@@@@@@@@@@@@@@@@@@@@@@@@@@@@@@@@@@@@@@@@@@@@@@@@@@@@@@@@@@@@@@@@@@@@@@@@@@@@@@@@@@@@@@@@@@@@@@@@@@@@@@   ",
"&&&&@@@@@@@@@@@@@@@@@@@@@@@@@@@@@@@@@@@@@@@@@@@@@@@@@@@@@@@@@@@@@@@@@@@@@@@@@@@@@@@@@@@@@@@@@@@@@@@@@@@@@@@@@@@@@@@@@@@@@@@@@   ",
"==****&&@@@@@@@@@@@@@@@@@@@@@@@@@@@@@@@@@@@@@@@@@@@@@@@@@@@@@@@@@@@@@@@@@@@@@@@@@@@@@@@@@@@@@@@@@@@@@@@@@@@@@@@@@@@@@@@@@@@@@   ",
"==****&&@@@@@@@@@@@@@@@@@@@@@@@@@@@@@@@@@@@@@@@@@@@@@@@@@@@@@@@@@@@@@@@@@@@@@@@@@@@@@@@@@@@@@@@@@@@@@@@@@@@@@@@@@@@@@@@@@@@@@   ",
"--------&&@@@@@@@@@@@@@@@@@@@@@@@@@@@@@@@@@@@@@@@@@@@@@@@@@@@@@@@@@@@@@@@@@@@@@@@@@@@@@@@@@@@@@@@@@@@@@@@@@@@@@@@@@@@@@@@@@@@   ",
"--------&&@@@@@@@@@@@@@@@@@@@@@@@@@@@@@@@@@@@@@@@@@@@@@@@@@@@@@@@@@@@@@@@@@@@@@@@@@@@@@@@@@@@@@@@@@@@@@@@@@@@@@@@@@@@@@@@@@@@   ",
"--------==&&&&@@@@@@@@@@@@@@@@@@@@@@@@@@@@@@@@@@@@@@@@@@@@@@@@@@@@@@@@@@@@@@@@@@@@@@@@@@@@@@@@@@@@@@@@@@@@@@@@@@@@@@@@@@@@@@@   ",
"--------==&&&&@@@@@@@@@@@@@@@@@@@@@@@@@@@@@@@@@@@@@@@@@@@@@@@@@@@@@@@@@@@@@@@@@@@@@@@@@@@@@@@@@@@@@@@@@@@@@@@@@@@@@@@@@@@@@@@   ",
"------========--==&&@@@@@@@@@@@@@@@@@@@@@@@@@@@@@@@@@@@@@@@@@@@@@@@@@@@@@@@@@@@@@@@@@@@@@@@@@@@@@@@@@@@@@@@@@@@@@@@@@@@@@@@@@   ",
"------========--==&&@@@@@@@@@@@@@@@@@@@@@@@@@@@@@@@@@@@@@@@@@@@@@@@@@@@@@@@@@@@@@@@@@@@@@@@@@@@@@@@@@@@@@@@@@@@@@@@@@@@@@@@@@   ",
"------====----------&&@@@@@@@@@@@@@@@@@@@@@@@@@@@@@@@@@@@@@@@@@@@@@@@@@@@@@@@@@@@@@@@@@@@@@@@@@@@@@@@@@@@@@@@@@@@@@@@@@@@@@@@   ",
"------====----------&&@@@@@@@@@@@@@@@@@@@@@@@@@@@@@@@@@@@@@@@@@@@@@@@@@@@@@@@@@@@@@@@@@@@@@@@@@@@@@@@@@@@@@@@@@@@@@@@@@@@@@@@   ",
"--------------------==&&@@@@@@@@@@&&&&&&&&@@@@@@@@@@@@@@@@@@@@@@@@@@@@@@@@@@@@@@@@@@@@@@@@@@@@@@@@@@@@@@@@@@@@@@@@@@@@@@@@@@@   ",
"--------------------==&&@@@@@@@@@@&&&&&&&&@@@@@@@@@@@@@@@@@@@@@@@@@@@@@@@@@@@@@@@@@@@@@@@@@@@@@@@@@@@@@@@@@@@@@@@@@@@@@@@@@@@   ",
"------------------------&&&&&&&&**==------*@@@@@@@@@@@@@@@@@@@@@@@@@@@@@@@@@@@@@@@@@@@@@@@@@@@@@@@@@@@@@@@@@@@@@@@@@@@@@@@@@@   ",
"------------------------&&&&&&&&**==------*@@@@@@@@@@@@@@@@@@@@@@@@@@@@@@@@@@@@@@@@@@@@@@@@@@@@@@@@@@@@@@@@@@@@@@@@@@@@@@@@@@   ",
"------------------------========-----------==@@@@&&&&&&@@@@@@@@@@@@@@@@@@@@@@@@@@@@@@@@@@@@@@@@@@@@@@@@@@@@@@@@@@@@@@@@@@@@@&   ",
"------------------------========-----------==@@@@&&&&&&@@@@@@@@@@@@@@@@@@@@@@@@@@@@@@@@@@@@@@@@@@@@@@@@@@@@@@@@@@@@@@@@@@@@@&   ",
"--------------------------======-------------==**====----**@@@@@@@@@@@@@@@@@@@@@@@@@@@@@@@@@@@@@@@@@@@@@@@@@@@@@@@@@@@@@@@@@=   ",
"--------------------------======-------------==**====----**@@@@@@@@@@@@@@@@@@@@@@@@@@@@@@@@@@@@@@@@@@@@@@@@@@@@@@@@@@@@@@@@@=   ",
"------------------------========-----------------==--------==@@@@@@&&&&&&@@@@@@@@@@@@@@@@@@@@@@@@@@@@@@@@@@@@@@@@@@@@@@@@@&&-   ",
"------------------------========-----------------==--------==@@@@@@&&&&&&@@@@@@@@@@@@@@@@@@@@@@@@@@@@@@@@@@@@@@@@@@@@@@@@@&&-   ",
"--------------------------====-------------------------------==****----==&&&&@@@@@@@@@@@@@@@@@@@@@@@@@@@@@@@@@@@@@@@@@@@@@**-   ",
"--------------------------====-------------------------------==****----==&&&&@@@@@@@@@@@@@@@@@@@@@@@@@@@@@@@@@@@@@@@@@@@@@**-   ",
"---------------------------------------------------------------------------==&&&&@@@@@@@@@@@@@@@@@@@@@@@@@@@@@@@@@@@@@@@&&===   ",
"---------------------------------------------------------------------------==&&&&@@@@@@@@@@@@@@@@@@@@@@@@@@@@@@@@@@@@@@@&&===   ",
"-------------------------------------------------------------==------------------**&&&@@@@@@@@@@@@@@@@@@@@@@@@@@@@@@@@@@**===   ",
"-------------------------------------------------------------==------------------**&&&@@@@@@@@@@@@@@@@@@@@@@@@@@@@@@@@@@**===   ",
"--------------------------==-----------------==--------------------------------==--=****&&&&@@@@@@@@@@@@@@@@@@@@@@@@@@&&**===   ",
"--------------------------==-----------------==--------------------------------==--=****&&&&@@@@@@@@@@@@@@@@@@@@@@@@@@&&**===   ",
"------------======----==========-------------==--------------------------------====---====**&&@@@@@@&&&&********&&&&&&&&=====   ",
"------------======----==========-------------==--------------------------------====---====**&&@@@@@@&&&&********&&&&&&&&=====   ",
"======------====******&&&&********======--=--==--------------------------------==-----====**&&&&&&******------********====***   ",
"======------====******&&&&********======--=--==--------------------------------==-----====**&&&&&&******------********====***   ",
"======--****======**&&&&&&**&&**&&**==---------------**&&&&&&==----------------=====****====&&&&**--------======--======**&&&   ",
"======--****======**&&&&&&**&&**&&**==---------------**&&&&&&==----------------=====****====&&&&**--------======--======**&&&   ",
"====----%%$$%%&&==****&&************==-----------==&&%%%%&&&&&&----------==----==&&%&&&&&&******====================**&&&&&&&   ",
"====----%%$$%%&&==****&&************==-----------==&&%%%%&&&&&&----------==----==&&%&&&&&&******====================**&&&&&&&   ",
"====----**%%%%%%&&******************==---------====**&&%%%%%%&&&&------==**----==&&%&&&&&&&&&&&&**==================&&&&&&&&&   ",
"====----**%%%%%%&&******************==---------====**&&%%%%%%&&&&------==**----==&&%&&&&&&&&&&&&**==================&&&&&&&&&   ",
"======--**%%%%%%%%&&****&&****&&&&&&**====*****&&&&******&&&&&&&&==----==========&&***&&**&&&&&&&&&&&&&&**********==**&&&&&&&   ",
"======--**%%%%%%%%&&****&&****&&&&&&**====*****&&&&******&&&&&&&&==----==========&&***&&**&&&&&&&&&&&&&&**********==**&&&&&&&   ",
"==****==**%%%%%%%%&&&&&&&&&&&&%%&&&&&&==&&$%%%%&&====**==&&&&******==--======****&&&**&&**&&****&&&&&&&&****************&&&&%   ",
"&&********&&%%$$$$%%&&&&&&%%%%%%&&======&&%%%%%==----**&&&&$$$$&&&&&&&&**********%%%%%&&**&&%%**&&&&******************&&%%%%%   ",
"&&********&&%%$$$$%%&&&&&&%%%%%%&&======&&%%%%%==----**&&&&$$$$&&&&&&&&**********%%%%%&&**&&%%**&&&&******************&&%%%%%   ",
"********&&%%$$++++$$%%%%%%%%%%%%%%====--==%%%**====--&&%%%%%%%%%%%%%%%%$$$$%%==**%%%%%%%%%$$$$&&****==**********&&&&&&&&%%%%$   ",
"********&&%%$$++++$$%%%%%%%%%%%%%%====--==%%%**====--&&%%%%%%%%%%%%%%%%$$$$%%==**%%%%%%%%%$$$$&&****==**********&&&&&&&&%%%%$   ",
"****&&&&$$++++++++++++++$$$$%%$$$$****&&&&$$$========&&%%$$%%$$$$$$$$%%%%$$%%**%%$$$$$$$$$$$$$%%******&&******&&$$%%%%%%$$$$$   ",
"****&&&&$$++++++++++++++$$$$%%$$$$****&&&&$$$========&&%%$$%%$$$$$$$$%%%%$$%%**%%$$$$$$$$$$$$$%%******&&******&&$$%%%%%%$$$$$   ",
"&&&&&&&&$$++++++++++$$$$%%$$$$$$$$&&%%&&*****==========****&&%%&&%%%%&&&&&&&&&&**&&%$$$$%%%%$$$$&&**&&%%&&**&&%%$$%%%%%%%%$$$   ",
"&&&&&&&&$$++++++++++$$$$%%$$$$$$$$&&%%&&*****==========****&&%%&&%%%%&&&&&&&&&&**&&%$$$$%%%%$$$$&&**&&%%&&**&&%%$$%%%%%%%%$$$   ",
"%%&&&&%%%%%%%%%%&&&&&&%%%%##$$$$&&====&&==-----========----==&&&&&&&&&&%%%%&&&&&&&&&%%$$%%$$$$$$%%%%%%$$$$$$$$$$$$$$%%&&&&%%$   ",
"%%&&&&%%%%%%%%%%&&&&&&%%%%##$$$$&&====&&==-----========----==&&&&&&&&&&%%%%&&&&&&&&&%%$$%%$$$$$$%%%%%%$$$$$$$$$$$$$$%%&&&&%%$   ",
"$$$$$$&&&&$$%%%%%%$$########++%%==----**&&=--==********====--**%%%%%%%%$$$$%%%%%%&&&&&**&&&&&&****==&&&&**%%$$$$$$$$$$$$$$$$$   ",
"$$$$$$&&&&$$%%%%%%$$########++%%==----**&&=--==********====--**%%%%%%%%$$$$%%%%%%&&&&&**&&&&&&****==&&&&**%%$$$$$$$$$$$$$$$$$   ",
"&&&&**==**%%$$$$%%%%%%%%%%%%&&**==----==**&==**%%%%%%&&========$$$$$$%%&&%%%%$$%%%%%&&==**&&========**====%%&&&&%%%%$$$$$$$$$   ",
"&&&&**==**%%$$$$%%%%%%%%%%%%&&**==----==**&==**%%%%%%&&========$$$$$$%%&&%%%%$$%%%%%&&==**&&========**====%%&&&&%%%%$$$$$$$$$   ",
"%%&&&&&&&&&&&&&&****&&&&&&**========**&&**=====**&&&&**========**&&&&==--=============**$$$$&&**&&****====%%&&&&$$$$%%%%$$$$$   ",
"%%&&&&&&&&&&&&&&****&&&&&&**========**&&**=====**&&&&**========**&&&&==--=============**$$$$&&**&&****====%%&&&&$$$$%%%%$$$$$   ",
"%%&&&&&&&&&&&&%%%%%%%%%%%%&&&&**==**$$&&---====&&&&**========**=======================**%%%%&&******==****%%%%&&%%$$%%&&**&&%   ",
"%%&&&&&&&&&&&&%%%%%%%%%%%%&&&&**==**$$&&---====&&&&**========**=======================**%%%%&&******==****%%%%&&%%$$%%&&**&&%   ",
"%%%%&&&&&&&&&&$$%%++$$%%%%&&&&&&&&$$$$%%===**&&******========****========&&=============&&&&**==**%%&&%%%%%%%%&&%%%%%%&&%%%%$   ",
"%%%%&&&&&&&&&&$$%%++$$%%%%&&&&&&&&$$$$%%===**&&******========****========&&=============&&&&**==**%%&&%%%%%%%%&&%%%%%%&&%%%%$   ",
"$$$$%%&&&&++++++++++++$$%%%%%%&&&&$$%%%%&&*&&&&********======****======**&&&&&&&&=======****====&&$$%%%%&&**&&$$%%%%&&&&%%&&$   ",
"$$$$%%&&&&++++++++++++$$%%%%%%&&&&$$%%%%&&*&&&&********======****======**&&&&&&&&=======****====&&$$%%%%&&**&&$$%%%%&&&&%%&&$   ",
"$$##########++++++++++$$$$$$$$++++++$$$$%%%%%&&&&==&&&&****&&**========**&&&&%%&&&&&**========**&&&&&&&&******$$%%%%%%%%%%%%$   ",
"$$##########++++++++++$$$$$$$$++++++$$$$%%%%%&&&&==&&&&****&&**========**&&&&%%&&&&&**========**&&&&&&&&******$$%%%%%%%%%%%%$   ",
"++++++++++++++++++++++++++++++##++++++$$$$%$$$$&&&&&&&&&&&&&&%%&&====&&%%&&**%%$$$$%%%$$&&******&&%%%%%%%%&&&&&&%%%%%%%%##++$   ",
"++++++++++++++++++++++++++++++##++++++$$$$%$$$$&&&&&&&&&&&&&&%%&&====&&%%&&**%%$$$$%%%$$&&******&&%%%%%%%%&&&&&&%%%%%%%%##++$   ",
"ooOOOOOO+++++++++++++++++++++++++++++++++++++++##&&&&&&&&&&&&%%++++%%##XX..$$$$##$$$++OO++%%&&&&%%$$$$##$$$$$$&&&&$$$$%%$$$$$   ",
"ooOOOOOO+++++++++++++++++++++++++++++++++++++++##&&&&&&&&&&&&%%++++%%##XX..$$$$##$$$++OO++%%&&&&%%$$$$##$$$$$$&&&&$$$$%%$$$$$   ",
"ooooooooooooooooooOOOOOOooOOOOooXXXXXXXXXXXXX..XXXXOO++OO%%%%++OOOOOOOO....OOOOOO++$$$ooOO++$$$$$$$$XX..$$$$$$%%%%$$$$%%$$$$$   ",
"ooooooooooooooooooOOOOOOooOOOOooXXXXXXXXXXXXX..XXXXOO++OO%%%%++OOOOOOOO....OOOOOO++$$$ooOO++$$$$$$$$XX..$$$$$$%%%%$$$$%%$$$$$   ",
"ooooXXooooooooooooooooooXXXX..ooooooXXXXXXX......XXooXXooXXXXXXOOOOoo......XXXXXX.......XXXXXXXXooXX....XXoooo$$$$$$$$$$OOOOO   ",
"ooooXXooooooooooooooooooXXXX..ooooooXXXXXXX......XXooXXooXXXXXXOOOOoo......XXXXXX.......XXXXXXXXooXX....XXoooo$$$$$$$$$$OOOOO   ",
"....ooXXXX..XXooXXooooXXXX....XXXXooooooooX........oooooo......ooooXX........XXXX.....XXXXooooXXXXXX......XXXXooXXXX..XXXXooo   ",
"....ooXXXX..XXooXXooooXXXX....XXXXooooooooX........oooooo......ooooXX........XXXX.....XXXXooooXXXXXX......XXXXooXXXX..XXXXooo   ",
"....XXXXoo....oooooooo..XX......oo..oooooo.......XX..XXXX......XXXX..........XX....XXXooooooooooXX........XXXXXX..XX..XXooOOO   ",
"....XXXXoo....oooooooo..XX......oo..oooooo.......XX..XXXX......XXXX..........XX....XXXooooooooooXX........XXXXXX..XX..XXooOOO   ",
"......XXXX....ooXXXXXXOOOO..........ooXX...........XX..XX..XXXXXXooooXX......XXXX...ooooooooXXXXoo......ooooXX....XXXXooOOOOo   ",
"......XXXX....ooXXXXXXOOOO..........ooXX...........XX..XX..XXXXXXooooXX......XXXX...ooooooooXXXXoo......ooooXX....XXXXooOOOOo   ",
"........XXoo..XXoo....XXXXXX..ooooooOOooXX...................XXXXXXooXXXXXXXXXX....XXXXXXXXXooXXXXooooooooXXXXXXXXXXooooXXXXX   ",
"........XXoo..XXoo....XXXXXX..ooooooOOooXX...................XXXXXXooXXXXXXXXXX....XXXXXXXXXooXXXXooooooooXXXXXXXXXXooooXXXXX   ",
"ooXXXXooooooooooooooooXX....XXXXooooOOOOooo....ooXXXX....XXXXooooooooooooooXXXX.........XXXXooXX....XXXX..XXXXooooooooOOOOOOO   ",
"                                                                                                                                ",
"                                                                                                                                ",
"                                                                                                                                "
};
