/* XPM */
static char *_cd68bdc22dc48efd3fbe71641d8e2f4[] = {
/* columns rows colors chars-per-pixel */
"64 64 15 1 ",
"  c #FFB0A0",
". c #BDCF88",
"X c #95CFA0",
"o c #D3C088",
"O c #D3DF94",
"+ c #FFCF88",
"@ c #FFF094",
"# c #FFC0AB",
"$ c #FFCFB6",
"% c #A9B0D7",
"& c #BDC0D7",
"* c #BDF0D7",
"= c #E9CFD7",
"- c #FFF0D7",
"; c #D3DFFF",
/* pixels */
"oooo+ooooo+ooooo ##$$$$$$$$$##$ oooo+oooo+oo++oooo+ooo++oo+ooooo",
"o@-@-----@--@@+o #$$$$$$$$$$$$-$o@-@----@@-@--@--@@---@@-@--@@+o",
"o-@@@@@@@@@@@@@o # $##$$$####$$#o-@@@@@@@@@@@@@@@@@@@@@@@@@@@@@o",
"o-@@@@@@@+++@+@+ ##$##$$$$$$$$- o-@@@@@@@@@@@@@@@@@@@++@@+++@+@+",
"o@@@@+++@@@++o@o #$#$$$$$$$$#$-#o@@@@+++@@@+++-@@+++@@@@@@@++o@o",
"+-++@@@@@@@++@@o #$$$$$$$- $$$-#+-++@@@@@@@@--@@@@@@@o-@@@@++@@o",
"+-@@@@@+++@@@@@+ #$$$$##$$-$$$= +-@@@@@+++@@@@@+++@@@-@@++@@@@@+",
"o-@++@++@@@@@+@o #$###$$##$$#$-#o-@++@++@@+++@@@@@++@@++@@@@@+@o",
"+-@@@@@@@+++@@++ #$$$$$$$$$$$$- +-@@@@@@@@@@@@@@++@@@@@@++@@@@+o",
"o-@@@o-@@@@@@@@o ##$###$$$#$$$$#o-@@@o-@@@@@@@@@@@@@@+@@@@@@@@++",
"+-@+@-@@+@@++++o #$$$$$$###$$$- +-@+@-@@@@@@@@+++@@@@++++@@o@@@+",
"o-@@@@@@@@@@@@++ $$$- $$$$$$$$-#o-@@@@@@@+-@@@@@@+++@@@@@+++@@+o",
"+-@@++@@@+++@@@+ #$$$-$$$$$$$$$ +-@@++@@@--@@+++@@@++@@@@@@++++o",
"o@@@@@@++@@+++++ $$#$$$$$$$$$$$$o@@@@@@+++@@++@@@@@++@@@@@@++@++",
"oo+++@+@++@@@+oo #$$#$$##$$#$$#$oo+++@+@@@+@@+@@++@@@@@@++@@@+@o",
"ooo+oooo+++o+ooo   ##  # #  #   ooo+oooo++ooo++o@@@@@@++@@@@@@@+",
"%&%%&%&%%%&%&&%%XXX.X..X..X.XX..XX.XX.XXX..XXXXX@+++@@@@@+++@@@o",
"%&=&=&===&====&%XO*OO*OO*O*O**O**OO**O**O***OO.X@@@@@@@@@@@@@++o",
"&&==&=&========%X*OOOOOOOOO.OOOOOOO.O..OOOOOOOO.+@@++++@+@@++++o",
"%&&==;=======&=%XOOOOOOOOO..OOOOOOOOOOOOOO..O.OX@@@@@@@@@@@@@@@+",
"%===;%======&&-&.*O.OOOOOOOO....O...OOOOOOOO.OOX@+++@@@@@+++@@@o",
"&&======&&&===-%OOOOOX-OOOOOOOOOOOOOOX-OOOOOO.OX@@@@@o-@@@@@@@@o",
"%===&&&===&====&XOOOO-OO..OOOOO...OOO-OO..OOOOO.++@@@-@@++@@@@+o",
"%&&============%X*O.OO..OO...OOOOO..OO..OO...O.X@@++@@++@@++@++o",
"%==&&&==&&==&=-&X*OOOOOOOOOOOOOOOOOOOOOOOOOOOOOX++@@@@@@@+++@@++",
"%&====&&==;===-%.*OOO.OOO...OOOOOOOOOOOOO...O.O.@@@@@+@@@@@@@@@o",
"&========;%===-&XOOOO...OOOOOO..OO..OXOOOOOOOO.X+@@@@++++@@++++o",
"%==&========&==&.*OOOOOOOOX-OOOOOO..OOOOOOX-O...@+++@@@@@@@@@@++",
"%&==&&========-%XOOOOOOOOO-OO...OOOO....OO-OOXOX@@@++@@@@+++@@@+",
"%=%=&&===&&&&==&XOOOOOOO.OO.O.OO..OOOOOOO...O.O.@@@@@@@@+@@+++++",
"&=&==========&-%O.OOO..O.O.O...O.OOOOOO.OOOOOOOX@@@+++@+++@@@+oo",
"%&===========&-%XXXX..XXXXX.XXXXX-O..OOO.....O.Xo+oooooo+++o+ooo",
"%&=&&&&&===&&=;%&%&&%%&%%%&%&&%%XOO.OOOOOOOOO.OOXXX.X..XX..XXXXX",
"&=======&======&&==&=&===&====&%XOOOOOOOOOOOOO.XXO*OO*OOO***OO.X",
"%&&=&&&=======&&=======&=======%.*O....OOO..OXOXX*OOOOOOOOOOOOO.",
"&=%==;==&&&&====&&&==-=======&=%X*OOOOOOOO..OOOXXOOOOOOOOO..O.OX",
"%=&=;%======&&======-%======&&-&.OO.OOOOOOOO..O..*O.OOOOOOOO.OOX",
"%=========%=&&==&&======&&&===-%.OOOOX-OOOOOOOO.OOOOOX-OOOOOO.OX",
"&=&=&&&=============&&&===&====&X*OOO-OO..OOO.OXXOOOO-OO..OOOOO.",
"%==============================%.*O.OO..OO...OOXX*O.OO..OO...O.X",
"%==&&&==&&==&&=====&&&==&&==&=-%X*OOOOOOOOOOO.OX.OOOOOOOOOOOOOOX",
"&=&===&&==;===&&&=====&&==;===-%.*OOO.OOO...OOO.X*OOO.OOO...O.O.",
"%========;%==============;%====%XOOOO...OOOOO.O..OOOO...OOOOOO.X",
"&==&========&&&=&&&&========&=-&.*OOOOOOOOX-OOOXX*O.OOOOOOX-O...",
"%===&&==============&&=========%XOOOOOOOOO-OOOO..OO..OOOOO-OOXOX",
"&=&=====-&&=&=======&=========-%XOOOOOOOOOOOOO..X*O..OOOO...O.O.",
"%&=-=------=---==--=---=---==-=%O.OOO..O..O.O..X.*OOOOOOOOOOOOOX",
"%&%%%&&%%%&%%&%%&&%%&%&&%&&%&%%%XXXX..XX.XXXXXXX.*OOOO.......O.X",
"oooo+ooooo+ooooo     ##   #  #  ##  # ## ## #   XOO.OOOOOOOOO.OO",
"o@-@-----@--@@+o #$$--$--$-----$$---$---$-$-$-$ XOOOOOOOOOOOOO.X",
"o-@@@@@@@@@@@@@o $$$$$$$$##$#$$###$$#$$$###$$$-$.*O....OOO..OXOX",
"o-@@@@@@@+++@+@+ $$$##$$$$$$$$$$$$$$##$##$$$$$- X*OOOOOOOO..OOOX",
"o@@@@+++@@@++o@o #$#$$$$$$$$###$####$$$$$$$$#$$#.OO.OOOOOOOO..O.",
"+-++@@@@@@@++@@o $$$$$$$$- $$$$$$$$$$$$$$- $$$-$.OOOOX-OOOOOOOO.",
"+-@@@@@+++@@@@@+ #$$$$##$$-$$$###$$$$$##$$-$$$- X*OOO-OO..OOO.OX",
"o-@++@++@@@@@+@o #$###$$##$$##$$$$$###$$##$$#$= .*O.OO..OO...OOX",
"+-@@@@@@@+++@@++ $#$$$$$$$$$$$$$$$$$$$$$$$$$$$- X*OOOOOOOOOOO.OX",
"o-@@@o-@@@@@@@@o #$$###$$$$$$$$$$$$$###$$$#$$$$#.*OOO.OOO...OOO.",
"+-@+@-@@+@@++++o $$$$$$$$$ $##$$##$$$$$$###$$$- XOOOO...OOOOO.O.",
"o-@@@@@@@@@@@@++ #$$- $$$$$$##$$$$$$- $$$$$$$$-#.*OOOOOOOOX-OOOX",
"+-@@++@@@+++@@@+ $#$$-$$####$$$$###$$-$$$$$$$$$ XOOOOOOOOO-OOOO.",
"o@@@@@@++@@+++++ #$$###$$$$$$$##$$$$#$$$$$$$$$$$XOOOOOOOOOOOOO..",
"oo+++@+@++@@@+oo #$$$$$$#$$$$$$##$##$#$$#$$#$$#$O.OOO..O..O.O..X",
"ooo+oooo+++o+ooo $$#####$$$##$- ##  #  # #  #   XXXX..XX.XXXXXXX"
};
