/* XPM */
static char *_4843d15eaca46c294871514d64c55b9[] = {
/* columns rows colors chars-per-pixel */
"32 32 84 1 ",
"  c black",
". c gray3",
"X c #100000",
"o c #180000",
"O c #101010",
"+ c #181818",
"@ c #290008",
"# c #310008",
"$ c #390008",
"% c gray13",
"& c #420008",
"* c #5A0010",
"= c #630010",
"- c #6B0010",
"; c #630810",
": c #730018",
"> c #732931",
", c #733139",
"< c #7B3942",
"1 c #7B394A",
"2 c #5A4A4A",
"3 c #7B6363",
"4 c #8C0018",
"5 c #AD0018",
"6 c #B50018",
"7 c #AD0021",
"8 c #BD0021",
"9 c #B50821",
"0 c #B51021",
"q c #C60021",
"w c #C60029",
"e c #C60831",
"r c #843942",
"t c #CE294A",
"y c #CE3152",
"u c #CE3952",
"i c #D63152",
"p c #845A63",
"a c #94636B",
"s c #A56B73",
"d c #D6425A",
"f c gray55",
"g c #BD848C",
"h c #B58C94",
"j c gray68",
"k c gray71",
"l c gray74",
"z c #C69494",
"x c #E7849C",
"c c #E78C9C",
"v c #E794A5",
"b c #CEA5A5",
"n c #C6ADAD",
"m c #CEADB5",
"M c #CEB5B5",
"N c #C6BDBD",
"B c #CEBDBD",
"V c #C6BDC6",
"C c #CEBDC6",
"Z c #DEBDC6",
"A c #E7BDC6",
"S c #EFBDC6",
"D c #F7BDCE",
"F c #C6C6C6",
"G c #CEC6C6",
"H c #CEC6CE",
"J c #CECECE",
"K c #D6CECE",
"L c #D6CED6",
"P c gray84",
"I c #DED6D6",
"U c gray87",
"Y c #F7C6CE",
"T c #E7DEDE",
"R c #EFDEDE",
"E c #F7DEE7",
"W c #E7E7E7",
"Q c #EFE7E7",
"! c #EFEFEF",
"~ c #F7E7E7",
"^ c #FFE7E7",
"/ c #FFE7EF",
"( c gray97",
") c gray100",
/* pixels */
"qqqqqqqqqqqqqwqqqqwqqqqqqqqqqqqq",
"qqqqqqqqqqwqqqqqqqqqwwqqqqqqqqqq",
"qqqqqqqqqqqdYD////DYdqqqqqqqqqqq",
"qqqqqqqqqiY^^))))))^^Yiqqqqqqqqq",
"qqqqqqweYS))))))))))))Sdqwqqqqqq",
"qqqqqwqc^))))))))))))))^xqqqqqqq",
"qqqqqqx))))))))))))))))))vqwqqqq",
"qqqqqi~))))))))))))))))))~dqqqqq",
"qqqqqS))))))))))))))))))))Sqqqqq",
"qqqwyE)))(()))))))))))))))Edqqqq",
"qqqqA())!lO .l())(l. .l)))(Aqqqq",
"qqquR(()lO   Ol))l.   Ol))(Qtqqq",
"qqqZW!((+     .))O     O()(!Aqqq",
"qqqIW!(!.      ))       )((WIqqq",
"qqqKUW(!       ))       )(!WIqqq",
"qqqKUW!!      .))       ((!TLqqq",
"qqqKPW!W      .))      .!(WUKqqq",
"qqqJPUW!O.    +))O    .+(!WPKqqq",
"qqqGJPW!j+   Of))l.   +l!!UPHqqq",
"qqqCJPU!(k++%l))))lOO%k(!WPJCqwq",
"qqqCHJUW!(()))))))))))(!WUPHCqqq",
"qqqmBGPUW!(())))))))((!WUPJB1qqq",
"qqq<zMJPW!!((())))(((!WUPJGG8qqq",
"qqqq>bJPUUW!!(((((!!!WUPJFChqqqq",
"qqqq4smJJPUWWW!!WWWWUPJJFFC48qqq",
"qqqq82BFJJPPPUUUUUUPPJJFFC178qqq",
"qqqqq8rGFFFJJJJJJJJJJFFFCrq8qqqq",
"qqqqqq9=gnFFFFFFFFFFFFVCr68qqqqq",
"qqqqqq885,NNFFFFFFFFFFp*qqqqqqqq",
"qqqqqqqq80;3CCNFNFVCa-8qqqqqqqqq",
"qqqqqqqqqq8:&#@oXo$=4wqqqqqqqqqq",
"qqqqqqqqqqqqqwww88wqqqqqqqqqqqqq"
};
